<svg width="647.000000" height="995.000000" viewBox="0 0 647 995" fill="none" xmlns="http://www.w3.org/2000/svg" xmlns:xlink="http://www.w3.org/1999/xlink">
	<desc>
			Created with Pixso.
	</desc>
	<defs>
		<linearGradient x1="721.562134" y1="603.410339" x2="19.701462" y2="415.347107" id="paint_linear_0_150_0" gradientUnits="userSpaceOnUse">
			<stop stop-color="#04DA00" stop-opacity="0.000000"/>
			<stop offset="0.312500" stop-color="#FF0469"/>
			<stop offset="0.703125" stop-color="#109BFF"/>
			<stop offset="1.000000" stop-color="#FFD110" stop-opacity="0.000000"/>
		</linearGradient>
	</defs>
	<g opacity="0.330000">
		<path id="Union" d="M314.757 6.40063L317.234 7.06445C342.849 14.1693 366.745 25.8829 388.594 41.6343C411.449 58.138 430.394 78.4218 444.874 101.854C477.973 154.898 485.87 220.016 467.492 290.406C429.15 438.001 508.134 577.446 571.455 689.762C600.187 740.187 627.209 787.981 639.19 828.848C652.623 874.208 646.861 907.424 620.801 933.512C593.478 960.71 556.239 978.974 509.488 987.69C472.322 994.87 429.321 995.9 381.385 991.021C304.125 983.129 239.384 961.684 232.049 959.254C231.644 959.12 231.414 959.044 231.367 959.031C188.629 941.062 151.228 918.488 120.395 892.122C91.5125 867.486 67.336 838.8 48.8707 806.816C47.7167 804.817 46.5626 802.818 45.6338 800.88C81.3175 864.995 140.232 919.887 231.548 958.355C231.612 958.373 231.893 958.464 232.381 958.624C240.426 961.254 304.741 982.278 381.341 990.285C456.488 998.11 558.864 994.402 620.471 932.941C646.185 907.243 652.172 874.087 638.679 828.953C626.473 788.025 599.676 740.291 571.17 689.927C539.202 633.566 503.232 569.615 480.378 502.661C455.551 429.649 450.379 363.423 464.534 300.604C428.667 441.798 504.203 575.262 564.901 682.695C592.192 731.286 618.286 777.141 629.953 816.476C642.622 860.183 636.936 892.212 612.14 917.19C585.855 943.218 549.983 960.883 505.275 969.18C469.416 975.986 428.112 976.989 382.039 972.368C307.456 964.586 244.666 943.933 238.438 941.885C238.136 941.785 237.967 941.73 237.936 941.721C196.939 924.46 160.994 902.759 131.332 877.431C103.62 853.832 80.3882 826.124 62.5221 795.508C56.2571 784.656 50.5632 773.475 45.5009 761.739C77.6887 835.297 137.254 898.57 238.117 941.046C238.182 941.063 238.461 941.154 238.943 941.311C246.788 943.869 308.539 964.002 381.995 971.632C454.093 979.122 552.563 975.575 611.585 916.559C636.321 891.806 641.946 860.002 629.157 816.745C617.489 777.411 591.621 731.615 564.269 683.25C533.62 629.173 498.909 567.732 477.089 503.228C454.411 436.191 448.733 375.093 460.058 317.25C430.34 449.743 501.107 574.882 558.285 675.854C584.648 722.506 609.362 766.302 620.716 804.104C633.132 846.053 627.808 876.732 603.824 900.479C578.742 925.622 544.297 942.463 501.348 950.507C467.021 956.999 427.189 957.913 383.263 953.385C311.638 945.927 251.626 926.23 245.573 924.243C245.275 924.146 245.108 924.091 245.076 924.082C231.328 918.262 218.214 911.957 205.746 905.174C217.998 911.77 230.902 917.935 244.461 923.676C245.137 923.857 256.892 927.731 276.261 932.921C301.71 939.74 340.134 948.587 382.648 952.979C451.698 960.135 546.038 956.688 602.698 900.177C626.457 876.37 631.72 845.917 619.409 804.478C608.28 766.736 583.341 722.88 557.203 676.288C527.933 624.271 494.646 565.625 473.573 503.735C451.483 438.616 446.338 379.655 457.546 323.549C427.778 451.209 496 571.953 551.159 669.116C576.143 713.709 600.093 755.852 610.683 792.001C622.62 832.133 617.433 861.399 594.366 884.427C570.322 908.399 537.245 924.641 496.053 932.432C463.258 938.611 425.063 939.722 382.834 935.166C313.866 928.036 255.935 908.749 250.967 907.094C250.758 907.025 250.642 906.986 250.624 906.982C177.788 876.12 123.518 830.922 89.5989 772.831C60.5217 722.796 45.546 661.574 45.2106 590.757C44.4502 461.168 91.4014 322.88 125.737 221.765C134.193 196.512 142.227 172.836 148.333 152.747C160.004 114.597 184.459 86.3893 219.096 71.5312C250.142 58.3662 287.332 56.5031 324.267 66.3999L326.519 67.0034C372.958 80.1708 414.074 110.499 439.018 150.736C465.643 193.544 473.859 245.08 462.839 300.907C495.085 163.172 413.712 73.2077 322.998 47.7144L320.746 47.1108C268.174 33.0244 206.32 40.8129 167.543 83.1669C179.722 69.6414 194.683 58.9795 212.137 51.5623C243.589 37.7819 282.415 36.116 321.152 46.4956L323.63 47.1594C372.32 60.9302 415.222 92.7026 441.215 134.428C469.317 179.463 477.564 233.87 465.824 292.546C499.988 148.47 414.977 54.4787 320.108 27.8699L317.856 27.2664C245.111 7.77441 155.061 28.5441 127.27 120.55C120.68 142.441 111.818 168.309 102.533 195.753C66.7956 300.906 20.0322 439.268 14.8592 571.451C19.7991 438.945 66.616 300.508 101.474 197.434L101.474 197.433L102.083 195.633C111.368 168.188 120.23 142.32 126.82 120.429C139.456 78.6754 165.987 48.1274 203.809 32.1919C237.2 17.4825 277.559 15.5032 317.872 26.3052L320.35 26.969C371.067 41.2828 415.755 74.4992 442.962 117.998C473.244 166.67 481.543 225.952 467.121 289.976C506.952 136.249 417.356 35.8223 317.053 7.74023L314.576 7.07642C238.903 -13.2001 145.217 8.52649 116.175 104.301C109.344 127.092 100.18 154.087 90.3681 182.597L89.9997 183.686L89.9991 183.688C54.0382 290.005 7.20081 428.478 -0.458679 562.105C6.97455 427.786 53.841 288.764 89.0743 184.25L89.0746 184.249L89.6925 182.416C99.2791 153.845 108.443 126.851 115.5 104.12C128.558 60.7894 156.352 29.1315 195.663 12.1462C230.585 -2.87659 272.867 -4.82373 314.757 6.40063ZM14.4103 600.13C14.3273 590.613 14.4837 581.048 14.8592 571.451C14.5347 580.157 14.3909 588.836 14.4432 597.479C14.4282 598.362 14.4173 599.246 14.4103 600.13ZM14.4103 600.13C14.4614 605.98 14.6029 611.811 14.8395 617.62C14.4941 611.866 14.3643 605.986 14.4103 600.13ZM137.975 136.454C144.586 114.673 154.823 97.0605 167.543 83.167C154.441 97.718 144.559 115.583 138.26 136.289C131.912 157.279 123.577 182.081 114.594 208.399C78.826 313.958 29.96 458.493 30.6234 593.849C31.0751 667.835 46.5733 731.611 76.9695 783.93C105.926 833.816 149.201 874.413 205.746 905.174C88.9059 842.271 31.364 740.211 30.3981 593.789C29.6744 458.658 78.5405 314.123 114.308 208.564C123.291 182.246 131.626 157.444 137.975 136.454ZM383.076 934.265C342.424 930.131 305.577 921.706 281.253 915.189C269.363 912.003 260.467 909.219 255.562 907.684C252.849 906.835 251.357 906.368 251.255 906.427C114.23 848.468 47.2477 745.31 46.3971 590.834C45.8015 461.53 92.5273 323.182 126.863 222.066C135.258 197.039 143.353 173.138 149.46 153.049C174.974 68.64 257.587 49.4985 324.251 67.3611L326.278 67.9042C411.884 92.0107 488.538 175.698 461.472 304.085C470.125 253.296 461.909 206.293 437.557 167C413.542 128.702 374.332 99.3672 329.86 86.9681L327.608 86.3646C292.249 76.8902 256.531 78.6649 227.528 91.412C194.319 105.446 170.962 132.258 159.939 168.892C154.073 188.08 146.341 210.63 138.187 234.756L137.852 235.748L137.852 235.749C105.263 332.168 60.7003 464.014 61.3304 587.352C61.3907 595.422 61.6473 603.365 62.0999 611.178C61.6959 603.547 61.4744 595.775 61.4348 587.862C60.7446 464.75 105.307 332.905 137.896 236.484L138.231 235.492C146.611 211.426 154.178 188.591 160.043 169.403C184.306 88.762 263.284 70.5776 327.02 87.6556L329.047 88.1987C410.665 111.001 483.766 190.835 458.298 313.161C466.385 264.945 458.695 220.238 435.419 183.083C412.619 146.559 375.195 118.668 332.75 106.812L330.723 106.269C296.94 97.217 263.145 99.0242 234.609 110.931C202.992 124.425 180.673 150.067 170.133 184.9C164.448 203.412 157.243 224.896 149.39 247.897L149.387 247.905C118.202 339.967 75.4739 466.105 76.2032 584.095C76.7564 648.695 90.2968 704.463 116.736 749.928C147.627 803.104 196.93 844.316 263.537 872.302C263.571 872.311 263.739 872.366 264.037 872.464C269.684 874.322 321.871 891.492 384.141 897.859C422.42 901.839 457.161 901.01 487.176 895.293C524.567 888.173 554.563 873.52 576.593 851.663C597.645 830.751 602.168 803.962 591.473 767.301C581.735 734.277 560.093 696.132 537.193 655.477C488.33 568.944 427.982 462.213 450.414 349.019C442.357 397.571 447.798 448.959 466.708 505.033C485.835 561.574 516.319 615.365 543.176 662.874C567.291 705.302 589.802 745.611 600.139 780.003C611.432 818.031 606.668 845.721 584.924 867.413C533.211 918.974 446.907 922.16 383.729 915.611C344.999 911.51 309.729 903.507 286.531 897.292C278.149 895.046 271.295 893.044 266.309 891.588C260.845 889.993 257.623 889.052 257.089 889.161C243.617 883.488 230.853 877.354 218.793 870.753C168.367 842.809 129.861 806.031 103.821 761.193C79.3823 719.153 65.4314 668.697 62.0999 611.178C68.4589 731.313 120.03 816.695 218.793 870.753C231.06 877.551 244.033 883.826 257.704 889.567C257.737 889.576 257.907 889.632 258.209 889.732C264.042 891.655 319 909.778 384.224 916.468C424.59 920.767 460.802 919.849 492.35 913.818C531.724 906.506 563.148 891.028 586.215 868.001C608.019 846.083 613.13 818.003 601.671 779.69C591.394 745.073 568.598 704.928 544.544 662.274C493.082 571.555 429.729 459.633 453.35 340.827C444.789 391.78 450.359 445.577 470.284 504.301C490.383 563.517 522.126 619.818 550.303 669.611C575.511 714.264 599.296 756.121 609.887 792.271C621.659 832.117 616.532 861.158 593.811 883.795C539.737 937.861 449.302 941.148 383.076 934.265ZM384.382 896.958C347.289 893.054 313.821 885.534 291.524 879.56C274.858 875.094 264.454 871.582 264.004 871.461C139.332 818.745 78.3623 724.68 77.45 583.947C76.8856 466.242 119.614 340.104 150.799 248.042L150.802 248.034C158.655 225.033 165.92 203.324 171.544 185.037C194.781 108.225 269.898 90.9368 330.706 107.23L332.733 107.773C413.059 130.504 485.114 211.124 453.005 334.561C452.983 334.647 452.96 334.734 452.938 334.821C464.097 284.375 457.486 237.64 433.507 199.227C411.921 164.476 376.283 138.03 335.864 126.717L333.837 126.174C301.857 117.605 269.533 119.323 242.876 130.526C212.852 143.482 191.63 167.728 181.513 200.984C176.13 218.37 169.166 238.954 161.841 260.889C132.087 348.507 91.4963 468.464 92.0974 580.63C92.3091 642 105.387 694.989 130.447 738.395C159.629 788.94 206.592 828.077 269.941 854.707C269.961 854.712 270.077 854.751 270.287 854.821C274.918 856.369 324.995 873.112 384.569 879.145C442.325 885.207 520.819 882.341 567.991 835.116C587.841 815.089 592.227 789.711 582.01 754.869C572.811 723.437 552.159 687.006 530.412 648.35C481.913 562.696 421.664 456.031 450.876 343.405C450.886 343.369 450.895 343.334 450.904 343.298C439.701 393.728 443.842 446.72 463.704 505.435C481.857 559.301 511.023 610.808 536.561 656.032C559.522 696.462 581.104 734.832 590.902 767.631C601.492 803.781 597.029 830.345 576.323 850.867C526.911 900.147 444.737 903.233 384.382 896.958ZM385.035 878.305C349.804 874.658 317.972 867.335 296.802 861.663C287.279 859.111 279.976 856.897 275.52 855.547C272.493 854.629 270.779 854.11 270.573 854.152C151.966 804.026 94.0841 714.651 93.2235 580.932C92.6224 468.765 133.153 349.034 162.906 261.415C170.232 239.481 177.196 218.897 182.578 201.511C204.789 128.528 276.106 111.912 333.986 127.421L335.788 127.903C411.367 149.108 478.874 224.142 451.261 338.971C460.169 293.139 453.346 250.672 431.535 215.596C411.104 182.844 377.311 157.616 338.919 146.847L337.118 146.364C306.714 138.217 275.922 139.622 250.693 150.001C222.036 162.358 202.078 185.494 192.443 216.948C187.527 233.494 180.804 253.176 173.841 273.76L173.263 275.472C145.276 358.331 107.074 471.435 107.767 577.104C108.088 635.365 120.193 685.68 144.159 726.862C171.857 774.837 216.419 812.123 276.511 837.397C276.53 837.403 276.642 837.44 276.844 837.506C281.264 838.962 328.635 854.564 385.222 860.492C439.705 866.159 514.294 863.454 559.105 818.735C577.916 799.878 582.226 775.687 572.488 742.662C563.828 712.823 544.104 678.33 523.512 641.673C478.397 561.909 422.392 462.642 446.893 357.792C437.913 403.906 442.361 452.637 460.414 506.002C477.819 557.254 505.276 606.13 529.72 649.13C574.757 728.787 610.292 791.656 567.436 834.485C520.55 881.545 442.341 884.245 385.035 878.305ZM301.795 843.931C321.839 849.302 352.095 856.202 385.463 859.591C439.721 865.198 514.024 862.658 558.55 818.103C599.105 777.554 565.384 717.827 522.595 642.393C480.318 567.652 428.546 475.906 441.907 378.361C425.452 473.07 475.867 562.538 516.836 635.056C536.499 669.774 555.009 702.494 563.191 730.515C572.45 761.721 568.442 784.786 550.383 802.638C508.158 844.913 437.474 847.457 385.815 842.063C329.92 836.259 283.245 820.373 282.854 820.027C226.02 796.108 184.024 760.958 157.585 715.492C134.937 676.595 123.355 628.834 123.09 573.968C122.582 473.536 158.853 366.422 185.432 287.931L185.72 287.081C192.382 267.623 198.577 249.007 203.252 233.362C212.239 203.424 231.325 181.743 258.328 170.151C282.536 159.981 311.405 158.544 340.233 166.268L342.034 166.751C378.399 176.977 410.181 200.701 429.788 232.025C448.999 262.799 455.824 299.507 450.078 339.069C470.69 235.257 408.212 167.547 338.618 147.973L336.816 147.49C282.088 132.826 214.408 148.486 193.448 217.7C188.532 234.246 181.87 253.703 174.846 274.512L174.233 276.328C146.25 359.175 108.14 472.006 108.833 577.631C109.581 704.561 164.6 789.307 276.917 836.782C277.124 836.74 278.775 837.243 281.672 838.127L281.673 838.127C285.915 839.42 292.829 841.529 301.795 843.931ZM385.891 840.877C354.445 837.52 325.766 831.042 306.848 825.973C292.659 822.172 283.771 819.307 283.607 819.022C177.129 774.077 125.199 694.021 124.502 574.105C123.934 473.896 160.205 366.783 186.783 288.293L187.071 287.443C193.508 267.925 199.928 249.369 204.603 233.724C224.312 168.278 288.356 153.575 340.156 167.455L341.733 167.877C407.476 186.42 466.612 250.402 447.012 348.837C452.363 311.526 445.876 277.129 427.877 248.169C409.484 218.618 379.262 196.279 345.15 186.655L343.573 186.233C316.322 178.931 288.925 180.28 266.25 190.136C240.899 200.965 222.791 221.7 214.286 249.836C209.853 264.58 203.734 282.011 197.599 300.402C172.428 374.523 138.032 475.864 138.639 570.892C138.952 622.875 149.847 667.796 171.175 704.409C196.131 747.305 235.787 780.38 289.364 802.943C289.384 802.948 289.499 802.987 289.705 803.055C293.922 804.452 336.234 818.477 386.408 823.635C435.244 828.755 501.797 826.311 541.721 786.317C578.593 749.608 548.333 695.878 509.996 628.154C471.124 559.573 423.107 474.855 439.445 385.039C426.476 477.536 475.636 564.483 515.754 635.49C556.235 706.926 587.918 763.452 549.663 801.721C507.498 843.77 437.551 846.27 385.891 840.877ZM312.066 808.302C329.858 813.069 356.9 819.349 386.77 822.284C435.156 827.283 501.198 824.944 541.002 785.4C577.009 749.478 547.412 696.932 509.809 630.171L509.079 628.874C470.635 561.053 423.515 477.629 437.829 388.917C420.353 474.677 466.059 555.728 503.155 621.252L503.216 621.36C539.217 685.034 567.671 735.361 533.06 769.995C495.497 807.484 433.074 809.828 387.286 805.042C340.071 800.208 300.537 787.14 296.494 785.803C296.292 785.737 296.179 785.699 296.158 785.693C245.839 764.486 208.583 733.261 185.052 693.161C165.102 658.608 154.67 616.466 154.473 567.652C153.996 478.839 186.029 383.902 209.457 314.468L209.764 313.559C215.597 296.293 221.189 279.929 225.381 266.086C243.114 207.111 300.519 193.767 346.913 206.198L348.49 206.62C380.575 215.7 409.011 236.596 426.19 264.373C443.849 292.662 449.609 326.377 443.551 362.824C464.761 267.7 408.09 205.675 345.238 188.127L343.661 187.705C294.79 174.61 234.546 188.641 215.863 250.259C211.429 265.003 205.536 282.493 199.176 300.825C174.005 374.946 139.609 476.286 140.276 571.09C140.861 684.217 189.928 759.643 290.116 801.937C290.23 801.871 291.603 802.297 294.074 803.064C297.781 804.213 303.958 806.129 312.066 808.302ZM387.198 803.57C359.25 800.668 333.785 794.81 317.119 790.344C304.732 787.025 296.745 784.402 296.295 784.282C202.397 744.639 156.253 673.617 155.72 567.503C155.408 479.023 187.346 384.365 210.77 314.943L211.115 313.921C216.948 296.655 222.54 280.291 226.732 266.448C244.164 208.599 300.772 195.524 346.491 207.775L347.842 208.137C405.851 224.373 458.01 280.588 441.166 367.05C445.482 334.937 439.664 305.322 424.053 280.456C408.028 254.679 381.438 235.002 351.38 226.465L350.028 226.103C306.562 214.456 253.018 226.903 236.596 281.885C232.646 294.827 227.581 310.126 222.049 326.265L221.52 327.83C199.544 392.758 169.632 481.134 170.203 563.901C170.508 609.606 180.193 649.134 198.823 681.403C220.586 719.097 255.501 748.247 302.562 768.099C302.727 768.384 341.415 781.647 387.714 786.329C430.453 790.78 488.971 788.597 524.008 753.328C556.321 720.972 529.839 674.068 496.144 614.386L496.089 614.29C462.123 554.213 420.443 480.484 433.925 402.264C423.319 483.582 466.416 559.71 501.727 622.076L502.168 622.856C537.66 685.641 565.689 735.224 531.889 768.958C494.672 806.056 432.76 808.295 387.198 803.57ZM321.211 772.371C364.002 783.837 470.252 805.307 523.003 752.576C554.622 721.002 528.31 674.386 494.946 615.28L494.887 615.174C463.551 559.751 425.402 492.277 430.318 420.401C422.833 489.381 459.459 554.274 489.474 607.448C514.429 651.455 535.134 688.103 527.531 716.478C525.544 723.891 521.626 730.739 515.347 737.006C454.529 797.811 318.5 753.828 309.379 750.879C309.105 750.79 308.946 750.739 308.906 750.728C265.102 732.232 232.528 705.158 212.249 670.034C194.713 639.989 185.776 603.075 185.526 560.765C185.278 517.671 193.831 472.842 205.002 431.151C213.948 397.762 224.574 366.386 233.703 339.526C238.708 324.452 243.696 310.34 247.18 298.239C262.637 246.86 312.77 235.43 353.309 246.292L354.66 246.655C382.691 254.648 407.496 272.882 422.531 296.946C435.855 318.272 441.503 343.373 439.211 370.492C451.297 293.184 403.686 242.845 350.957 228.041L349.606 227.679C306.815 216.213 254.068 228.391 237.662 282.412C233.711 295.354 228.647 310.653 223.055 327.017L223.043 327.052C201.023 392.118 170.918 481.07 171.329 564.203C171.75 663.527 214.866 729.634 302.864 766.972C303.314 767.093 310.175 769.414 321.211 772.371ZM514.177 735.969C465.05 785.084 366.352 765.155 326.489 754.474C316.129 751.698 309.944 749.558 309.493 749.437C227.725 714.975 187.758 653.333 187.163 560.962C186.881 517.994 195.4 473.289 206.548 431.685C215.476 398.365 226.09 367.034 235.22 340.174C240.224 325.1 245.048 310.702 248.757 298.661C263.911 248.409 313.083 236.962 352.946 247.644L354.298 248.006C404.881 262.257 450.518 311.682 435.062 387.706C438.713 360.176 433.804 334.692 420.334 313.254C406.348 290.678 383.614 273.724 357.549 266.499L356.423 266.197C318.812 256.119 272.48 266.878 258.214 314.713C254.746 325.853 250.225 339.125 245.522 353.073C236.945 378.203 226.952 407.53 218.588 438.744C208.329 477.031 200.522 518.156 200.789 557.855C201.087 597.281 209.337 631.355 225.554 659.115C244.409 691.445 274.583 716.668 315.129 733.809C315.17 733.82 315.33 733.871 315.603 733.96C324.374 736.793 450.048 777.393 506.339 721.075C512.128 715.294 515.743 708.972 517.577 702.124C524.622 675.833 505.427 641.799 482.288 600.936C452.99 548.94 416.883 485.15 428.981 417.324C419.922 487.87 457.474 554.116 488.046 608.272L488.112 608.389C512.709 652.042 533.251 688.499 525.794 716.331C523.886 723.449 520.148 730.003 514.177 735.969ZM505.29 719.587C460.072 764.922 368.702 746.474 331.767 736.577C322.308 734.043 316.287 732.188 315.612 732.007C239.908 700.136 202.864 642.897 202.321 557.541C202.112 518.039 209.979 476.948 220.244 438.638C228.381 408.27 238.025 379.65 246.347 354.951L246.934 353.209C251.862 339.322 256.158 325.99 259.626 314.85C273.875 267.976 320.087 257.668 357.127 268.075C403.122 280.855 444.36 325.02 432.617 392.92C434.681 369.466 429.956 347.858 418.422 329.398C405.59 308.821 384.702 293.086 360.664 286.403L359.538 286.102C325.08 276.869 282.384 286.67 269.369 330.737C266.143 340.976 262.148 353.182 257.747 366.004L257.488 366.77C249.754 389.64 240.773 416.197 233.209 444.429C223.737 479.775 216.487 517.747 216.683 554.389C217.01 632.446 252.345 687.053 321.759 716.274C321.791 716.283 321.922 716.325 322.147 716.397C329.787 718.86 445.885 756.288 497.738 704.528C503.121 699.174 506.476 693.317 508.175 686.977C514.667 662.749 496.98 631.458 475.877 594.125L475.733 593.869C449.799 548.05 417.999 492.068 425.444 432.559C420.75 495.081 453.688 553.502 480.92 601.535C503.936 641.926 522.939 675.575 516.027 701.372C514.261 707.962 510.804 714.04 505.29 719.587ZM496.628 703.265C454.81 744.925 370.993 728.018 336.985 718.906C328.202 716.552 322.692 714.593 322.241 714.472C252.663 684.966 218.647 632.643 218.216 554.075C217.952 517.682 225.173 479.822 234.631 444.525C242.185 416.334 251.166 389.777 258.899 366.908L259.159 366.141C263.56 353.319 267.78 341.173 270.781 330.874C283.659 288.219 325.334 278.626 359.116 287.678L360.242 287.98C402.948 300.112 441.372 341.283 429.479 404.572C434.878 351.46 401.034 316.723 363.78 306.308L362.879 306.067C331.349 297.618 292.228 306.688 279.789 346.805C277.029 356.204 273.111 367.224 269.236 378.979C262.198 399.679 254.045 423.842 247.15 449.572C238.423 482.14 231.715 517.22 231.842 550.968C232.282 622.296 264.528 672.214 327.878 698.844C327.911 698.853 328.042 698.895 328.266 698.967C335.557 701.314 441.299 735.359 488.626 688.086C493.543 683.193 496.608 677.845 498.159 672.056C504.07 649.996 488.009 621.525 468.745 587.378L468.607 587.132C444.461 544.074 414.489 491.215 423.557 435.237C417.552 494.094 448.652 549.375 474.305 594.693L474.451 594.951C495.38 631.988 512.866 662.931 506.535 686.558C504.912 692.615 501.724 698.191 496.628 703.265ZM487.577 686.598C449.607 724.702 372.893 709.216 342.038 700.948C334.156 698.836 329.261 697.283 328.646 696.877C265.297 670.247 234.205 622.328 233.825 550.775C233.666 517.566 240.244 483.076 248.853 450.95C255.845 424.855 264.176 400.319 271.324 379.297C275.198 367.542 279.116 356.522 281.876 347.123C293.623 307.786 332.398 299.106 363.357 307.885C401.855 318.655 436.55 355.61 426.799 412.297C430.187 365.847 400.051 335.521 366.895 326.212L365.994 325.971C337.391 318.307 302.071 326.706 291.229 362.665C288.711 371.163 285.319 381.116 281.747 391.746C275.234 410.82 267.685 433.039 261.356 456.66C253.522 485.896 247.557 517.279 247.737 547.502C248.29 612.102 277.508 657.105 334.732 681.369C334.758 681.376 334.863 681.41 335.045 681.469C341.278 683.483 437.322 714.514 480.25 671.6C484.583 667.253 487.293 662.461 488.684 657.272C494.179 636.764 479.06 610.052 462.052 580.065C440.628 542.359 414.692 496.296 420.569 447.465C417.277 499.233 444.579 547.625 467.239 587.731L467.379 587.978C486.47 621.83 502.329 649.953 496.579 671.413C495.104 676.918 492.206 681.985 487.577 686.598ZM478.629 670.442C444.344 704.705 375.183 690.76 347.256 683.277C340.049 681.346 335.605 679.914 334.929 679.733C233.632 637.046 240.478 539.943 262.419 458.057C268.76 434.393 276.361 412 282.978 392.559C286.55 381.929 289.941 371.975 292.46 363.477C303.06 328.419 337.524 320.515 365.225 327.938L366.126 328.179C399.893 337.67 430.525 369.471 424.025 418.384C424.68 379.47 398.65 354.199 370.235 346.177L369.334 345.936C343.66 339.056 311.75 346.438 302.324 378.914C299.822 386.451 296.957 395.339 293.687 404.842C287.959 421.823 281.308 441.546 275.694 462.495C268.647 488.796 263.236 517.031 263.346 544.202C263.562 601.952 289.692 642.265 341.076 663.999C341.103 664.007 341.209 664.041 341.389 664.099C347.278 665.999 432.963 693.644 471.364 655.218C475.299 651.322 477.754 647.009 479.009 642.329C483.931 623.959 470.357 599.921 455.211 573.163C437.408 541.766 415.969 503.835 417.568 463.272C418.028 506.827 440.984 547.39 460.053 581.219C477.439 611.859 491.89 637.416 486.687 656.835C485.363 661.773 482.769 666.315 478.629 670.442ZM470.029 653.895C439.367 684.543 377.533 672.078 352.534 665.38C346.003 663.63 342.009 662.318 341.845 662.033C251.365 623.745 257.501 537.12 277.111 463.938C282.78 442.779 289.576 422.743 295.488 405.325C298.699 396.047 301.849 386.994 304.126 379.396C313.475 348.107 344.078 341.1 368.851 347.738L369.527 347.919C400.803 356.757 428.773 386.845 420.449 433.047C422.524 397.059 398.952 373.602 373.065 366.247L372.389 366.066C349.642 359.971 321.593 366.456 313.073 395.553C311.037 402.25 308.249 409.951 305.505 418.389L305.366 418.801C300.248 433.864 294.282 451.426 289.283 470.082C283.133 493.034 278.447 517.643 278.609 541.291C278.938 592.313 301.979 627.936 347.3 647.08C347.328 647.088 347.434 647.122 347.613 647.18C353.138 648.959 428.479 673.229 462.356 639.287C465.766 635.822 467.904 632.015 469.007 627.901C473.372 611.608 461.487 590.495 448.025 566.651C430.916 536.406 409.862 499.329 415.653 460.048C412.826 502.233 435.176 541.557 453.498 574.152C469.043 601.603 481.864 624.336 477.211 641.699C476.028 646.115 473.715 650.184 470.029 653.895ZM461.081 637.739C434.105 664.546 379.823 653.622 357.752 647.708C355.467 647.096 353.526 646.536 352.007 646.098C349.783 645.457 348.463 645.076 348.293 645.174C268.537 611.634 274.016 535.296 291.293 470.817C296.266 452.257 302.217 434.679 307.394 419.387L307.472 419.157C310.441 410.78 313.064 402.793 315.1 396.096C323.544 368.185 350.736 362.195 372.747 368.334C400.364 375.964 425.042 402.739 417.434 443.716C418.947 412.647 398.717 392.399 376.18 386.151L375.504 385.97C355.91 380.72 331.497 386.248 324.063 411.292C322.268 417.087 320.008 423.723 317.566 431.034C313.144 443.95 308.066 458.958 303.789 474.923C298.399 495.035 294.28 516.665 294.338 537.54C294.555 581.772 314.734 612.767 353.989 629.32C356.857 630.329 423.5 652.773 453.815 622.515C456.828 619.5 458.709 616.182 459.671 612.591C463.421 598.597 453.219 580.466 441.724 560.035L441.47 559.584C426.824 533.915 408.951 502.385 413.135 469.042C411.389 505.457 430.618 539.566 446.537 567.7C460.132 591.775 471.415 611.844 467.324 627.112C466.292 630.964 464.281 634.51 461.081 637.739ZM452.03 621.071C428.902 644.323 381.723 634.82 362.805 629.751L354.247 627.458C285.335 598.3 290.214 532.056 305.171 476.236C309.435 460.323 314.518 445.257 318.944 432.138L319.022 431.907C321.463 424.596 323.785 417.735 325.579 411.939C332.877 388.307 356.043 382.928 374.736 387.937L375.411 388.118C398.776 394.604 419.985 417.04 414.319 451.381C413.995 427.081 397.448 411.119 379.295 406.056L378.844 405.935C361.953 401.409 341.341 406.266 334.647 427.645C333.154 432.315 331.36 438.11 329.22 444.295C325.372 455.633 320.946 468.677 317.253 482.458C304.442 530.271 300.456 586.965 360.048 612.115C360.176 612.149 360.448 612.233 360.852 612.357C368.271 614.644 420.258 630.668 444.643 606.298C447.293 603.667 448.94 600.777 449.777 597.656C452.99 585.665 444.238 570.245 434.344 552.846C422.792 532.269 408.667 507.235 410.185 480.767C410.742 510.25 426.264 537.664 439.246 560.677C451.049 581.385 460.96 598.814 457.437 611.963C456.549 615.276 454.808 618.317 452.03 621.071ZM443.368 604.749C423.64 624.326 384.013 616.364 368.023 612.079C363.969 610.993 361.327 610.043 361.102 609.983C303.087 585.452 307.039 529.609 319.646 482.561C323.294 468.947 327.666 456.069 331.472 444.899C333.612 438.713 335.406 432.918 336.959 428.023C343.066 407.935 362.822 403.573 378.752 408.083C398.83 413.692 416.731 433.131 411.201 462.781C410.557 443.616 397.55 430.213 382.41 425.96L381.959 425.839C368.221 422.158 351.185 426.283 345.802 443.669C344.716 447.723 342.998 452.332 341.385 457.452L341.382 457.461C338.277 466.658 334.717 477.205 331.732 488.344C321.211 527.609 317.846 574.216 366.842 594.865C366.947 594.894 367.17 594.962 367.501 595.064C373.58 596.94 416.185 610.082 436.207 590.037C438.366 587.892 439.71 585.529 440.395 582.972C443.05 573.066 435.806 560.257 427.729 546.005C418.17 529.162 406.536 508.473 407.977 486.727C408.613 511.5 421.649 534.551 432.631 553.835L432.853 554.232C442.669 571.755 450.793 586.258 447.871 597.161C447.131 599.925 445.681 602.458 443.368 604.749ZM434.482 588.368C418.662 604.164 386.364 597.682 373.301 594.182L373.3 594.182C369.922 593.277 367.896 592.734 367.731 592.448C320.487 572.49 323.72 527.166 333.992 488.83C336.968 477.723 340.535 467.203 343.637 458.056C345.25 452.936 346.742 448.267 348.054 444.273C352.849 428.178 368.519 424.652 381.356 428.092L381.806 428.212C398.862 433.024 414.071 450.134 407.296 476.32C400.461 502.731 414.639 527.29 425.73 547.159C425.927 547.514 426.124 547.868 426.32 548.22C434.025 562.068 440.406 573.537 438.068 582.261C437.475 584.475 436.32 586.513 434.482 588.368Z" clip-rule="evenodd" fill="url(#paint_linear_0_150_0)" fill-opacity="1.000000" fill-rule="evenodd"/>
	</g>
</svg>
