<svg width="646.000000" height="995.000000" viewBox="0 0 646 995" fill="none" xmlns="http://www.w3.org/2000/svg" xmlns:xlink="http://www.w3.org/1999/xlink">
	<desc>
			Created with Pixso.
	</desc>
	<defs>
		<linearGradient x1="-76.043823" y1="390.590149" x2="625.816772" y2="578.653137" id="paint_linear_0_124_0" gradientUnits="userSpaceOnUse">
			<stop stop-color="#FFD110" stop-opacity="0.000000"/>
			<stop offset="0.286458" stop-color="#109BFF"/>
			<stop offset="0.614583" stop-color="#FF0469"/>
			<stop offset="1.000000" stop-color="#04DA00" stop-opacity="0.000000"/>
		</linearGradient>
	</defs>
	<g opacity="0.330000">
		<path id="Union" d="M330.762 987.6L328.284 986.936C302.67 979.831 278.773 968.118 256.924 952.366C234.07 935.862 215.125 915.579 200.645 892.146C167.546 839.103 159.649 773.984 178.027 703.595C216.368 555.999 137.384 416.554 74.063 304.238C45.3317 253.814 18.3094 206.02 6.32812 165.152C-7.10461 119.793 -1.34241 86.5764 24.7173 60.4886C52.0399 33.2909 89.2795 15.0266 136.03 6.31091C173.196 -0.869141 216.197 -1.89926 264.133 2.97916C341.393 10.871 406.134 32.3166 413.469 34.7462C413.874 34.8804 414.104 34.9566 414.151 34.9693C456.89 52.9385 494.29 75.5123 525.123 101.878C554.006 126.514 578.182 155.2 596.648 187.184C597.802 189.183 598.956 191.182 599.884 193.12C564.201 129.005 505.286 74.1135 413.97 35.6449C413.906 35.6277 413.625 35.5359 413.138 35.3765C405.093 32.7466 340.778 11.7225 264.177 3.71515C189.03 -4.10947 86.6547 -0.401581 25.047 61.0597C-0.666748 86.7574 -6.65417 119.913 6.83899 165.048C19.0454 205.975 45.8425 253.709 74.3485 304.073C106.317 360.435 142.286 424.385 165.14 491.339C189.968 564.353 195.14 630.581 180.983 693.401C216.853 552.205 141.316 418.74 80.6178 311.305C53.3262 262.715 27.2328 216.859 15.5651 177.524C2.89636 133.818 8.58203 101.788 33.3788 76.8102C59.6637 50.7827 95.5358 33.1176 140.243 24.82C176.102 18.0139 217.406 17.0118 263.479 21.6327C338.063 29.4145 400.852 50.0673 407.08 52.1158C407.382 52.2151 407.551 52.2706 407.582 52.279C448.579 69.5402 484.524 91.2411 514.187 116.569C541.899 140.168 565.13 167.876 582.996 198.492C589.261 209.344 594.955 220.525 600.018 232.261C567.83 158.703 508.264 95.4298 407.401 52.9547C407.336 52.9372 407.057 52.8464 406.575 52.6892C398.73 50.1313 336.98 29.9982 263.524 22.3687C191.425 14.8781 92.9551 18.4254 33.9337 77.4417C9.19739 102.194 3.57202 133.999 16.3615 177.255C28.0292 216.59 53.8973 262.385 81.2493 310.75C111.899 364.827 146.609 426.268 168.43 490.773C191.107 557.808 196.785 618.905 185.461 676.747C215.177 544.255 144.411 419.117 87.233 318.147C60.8702 271.495 36.1561 227.699 24.802 189.896C12.3865 147.947 17.7101 117.269 41.6943 93.5214C66.7766 68.3787 101.221 51.5379 144.171 43.4936C178.497 37.0011 218.329 36.0873 262.255 40.6155C333.88 48.0734 393.892 67.7703 399.945 69.757C400.243 69.8547 400.41 69.9095 400.442 69.918C414.194 75.7405 427.312 82.0474 439.784 88.8328C427.528 82.2344 414.62 76.067 401.057 70.3243C400.381 70.1432 388.626 66.2692 369.257 61.0794C343.808 54.2603 305.385 45.4131 262.87 41.0218C193.821 33.8652 99.4807 37.3124 42.8203 93.8231C19.0614 117.631 13.7981 148.084 26.1091 189.522C37.238 227.264 62.1774 271.121 88.3149 317.712C117.585 369.73 150.872 428.375 171.945 490.266C194.036 555.384 199.18 614.346 187.973 670.453C217.741 542.792 149.519 422.047 94.3591 324.884C69.3756 280.292 45.4255 238.148 34.8354 201.999C22.8983 161.868 28.0851 132.601 51.1522 109.574C75.1968 85.6012 108.274 69.3596 149.466 61.5685C182.26 55.3896 220.455 54.2786 262.684 58.8348C331.652 65.9648 389.583 85.2519 394.552 86.9059C394.761 86.9755 394.876 87.0139 394.894 87.0188C467.73 117.881 522.001 163.079 555.919 221.169C584.997 271.204 599.972 332.426 600.308 403.243C601.068 532.832 554.117 671.12 519.782 772.235C511.326 797.488 503.292 821.164 497.185 841.253C485.514 879.404 461.059 907.611 426.422 922.469C395.377 935.634 358.187 937.497 321.251 927.6L318.999 926.997C272.56 913.83 231.444 883.501 206.501 843.264C179.875 800.456 171.659 748.92 182.68 693.093C150.433 830.829 231.807 920.793 322.52 946.286L324.773 946.889C377.344 960.976 439.198 953.188 477.975 910.834C465.796 924.359 450.835 935.021 433.382 942.438C401.93 956.218 363.103 957.884 324.366 947.505L321.889 946.841C273.198 933.07 230.296 901.298 204.303 859.573C176.202 814.538 167.955 760.132 179.694 701.457C145.532 845.532 230.542 939.522 325.41 966.13L327.663 966.734C400.407 986.226 490.457 965.456 518.248 873.45C524.838 851.56 533.701 825.692 542.985 798.247C578.722 693.096 625.484 554.738 630.659 422.556C625.718 555.061 578.902 693.495 544.045 796.568L544.044 796.569L543.436 798.368C534.151 825.812 525.289 851.68 518.699 873.571C506.063 915.325 479.532 945.873 441.709 961.808C408.319 976.518 367.96 978.497 327.646 967.695L325.169 967.031C274.451 952.717 229.764 919.501 202.556 876.002C172.274 827.329 163.976 768.046 178.398 704.021C138.565 857.75 228.162 958.178 328.465 986.26L330.943 986.924C406.615 1007.2 500.301 985.474 529.343 889.699C536.174 866.908 545.339 839.914 555.15 811.403L555.519 810.314C591.48 703.996 638.317 565.523 645.977 431.895C638.544 566.214 591.677 705.237 556.444 809.752L555.826 811.584C546.239 840.155 537.075 867.149 530.019 889.88C516.96 933.211 489.167 964.869 449.856 981.854C414.933 996.877 372.652 998.824 330.762 987.6ZM631.108 393.871C631.191 403.39 631.035 412.957 630.659 422.556C630.984 413.849 631.128 405.166 631.075 396.521C631.09 395.639 631.101 394.755 631.108 393.871ZM631.108 393.871C631.057 388.021 630.916 382.19 630.679 376.38C631.024 382.135 631.154 388.014 631.108 393.871ZM507.544 857.546C500.932 879.327 490.695 896.941 477.975 910.834C491.078 896.283 500.959 878.417 507.258 857.711C513.606 836.722 521.942 811.919 530.925 785.601C566.692 680.042 615.558 535.508 614.895 400.151C614.443 326.165 598.945 262.389 568.549 210.07C539.594 160.187 496.323 119.593 439.784 88.8328C556.616 151.736 614.154 253.794 615.12 400.212C615.844 535.343 566.978 679.877 531.211 785.436C522.227 811.754 513.892 836.557 507.544 857.546ZM262.443 59.7357C303.094 63.8695 339.942 72.2943 364.265 78.8117C376.155 81.9977 385.052 84.7817 389.956 86.3166C392.669 87.1656 394.161 87.6325 394.263 87.5738C531.289 145.532 598.271 248.69 599.121 403.167C599.717 532.47 552.991 670.819 518.656 771.934C510.26 796.961 502.166 820.862 496.059 840.951C470.545 925.36 387.931 944.502 321.267 926.639L319.24 926.096C233.634 901.99 156.981 818.303 184.046 689.917C175.394 740.705 183.61 787.708 207.962 827C231.977 865.299 271.187 894.633 315.659 907.032L317.911 907.636C353.27 917.11 388.988 915.335 417.99 902.588C451.199 888.555 474.557 861.743 485.58 825.108C491.445 805.92 499.177 783.37 507.331 759.244L507.667 758.253C540.256 661.831 584.818 529.986 584.188 406.648C584.128 398.578 583.871 390.635 583.418 382.823C583.822 390.454 584.044 398.225 584.083 406.138C584.774 529.25 540.212 661.095 507.623 757.516L507.287 758.508C498.908 782.574 491.341 805.41 485.475 824.598C461.212 905.238 382.234 923.423 318.498 906.345L316.471 905.802C234.854 882.999 161.752 803.165 187.221 680.839C179.133 729.055 186.824 773.762 210.099 810.917C232.899 847.442 270.324 875.332 312.769 887.188L314.796 887.731C348.578 896.783 382.374 894.976 410.909 883.07C442.526 869.575 464.846 843.933 475.386 809.101C481.07 790.588 488.275 769.104 496.128 746.104L496.131 746.095C527.316 654.034 570.044 527.895 569.315 409.905C568.762 345.306 555.222 289.537 528.782 244.072C497.892 190.896 448.588 149.684 381.981 121.698C381.947 121.689 381.779 121.634 381.482 121.536C375.834 119.678 323.647 102.508 261.377 96.1417C223.098 92.161 188.358 92.9907 158.342 98.7073C120.951 105.827 90.9551 120.48 68.9257 142.337C47.8737 163.249 43.3507 190.039 54.0454 226.699C63.7832 259.723 85.425 297.869 108.326 338.524C157.188 425.057 217.537 531.788 195.104 644.982C203.162 596.43 197.72 545.042 178.81 488.967C159.684 432.426 129.199 378.635 102.342 331.127C78.2271 288.698 55.7166 248.389 45.3796 213.997C34.0858 175.969 38.8501 148.279 60.594 126.587C112.307 75.0268 198.611 71.8404 261.789 78.3892C300.519 82.4906 335.79 90.493 358.987 96.7086C367.369 98.9547 374.223 100.956 379.21 102.412C384.674 104.008 387.896 104.949 388.43 104.839C401.901 110.512 414.665 116.646 426.725 123.248C477.151 151.192 515.658 187.97 541.697 232.808C566.136 274.847 580.087 325.303 583.418 382.822C577.059 262.688 525.488 177.305 426.725 123.248C414.458 116.45 401.485 110.174 387.814 104.433C387.781 104.424 387.611 104.368 387.309 104.268C381.476 102.345 326.518 84.222 261.295 77.5325C220.928 73.2338 184.716 74.1519 153.168 80.1821C113.794 87.4947 82.3702 102.972 59.303 126C37.4988 147.917 32.3885 175.997 43.8473 214.311C54.1239 248.928 76.9199 289.072 100.974 331.726C152.436 422.445 215.788 534.367 192.168 653.172C200.73 602.219 195.159 548.422 175.235 489.699C155.135 430.483 123.392 374.183 95.2158 324.39C70.0071 279.737 46.2219 237.879 35.6317 201.73C23.8595 161.884 28.986 132.842 51.7072 110.205C105.781 56.1395 196.216 52.8529 262.443 59.7357ZM261.136 97.0426C298.229 100.947 331.698 108.466 353.994 114.441C370.66 118.906 381.064 122.418 381.515 122.539C506.186 175.256 567.156 269.32 568.068 410.054C568.633 527.758 525.905 653.896 494.719 745.959L494.716 745.967C486.864 768.967 479.598 790.677 473.974 808.964C450.737 885.776 375.62 903.064 314.812 886.77L312.785 886.227C232.46 863.497 160.404 782.877 192.513 659.44C192.536 659.353 192.558 659.267 192.58 659.18C181.421 709.626 188.032 756.36 212.011 794.773C233.597 829.524 269.236 855.97 309.654 867.283L311.681 867.826C343.662 876.395 375.985 874.677 402.643 863.474C432.667 850.518 453.888 826.272 464.006 793.016C469.389 775.63 476.352 755.046 483.678 733.111C513.431 645.493 554.022 525.536 553.421 413.37C553.209 352 540.131 299.011 515.071 255.605C485.889 205.06 438.926 165.923 375.577 139.293C375.558 139.288 375.441 139.249 375.231 139.179C370.6 137.631 320.523 120.889 260.95 114.855C203.193 108.793 124.699 111.659 77.5271 158.884C57.6776 178.911 53.2916 204.289 63.5078 239.131C72.7069 270.563 93.3596 306.995 115.106 345.651C163.605 431.304 223.854 537.969 194.642 650.595C194.633 650.631 194.624 650.666 194.615 650.701C205.818 600.272 201.676 547.28 181.815 488.566C163.661 434.699 134.496 383.193 108.957 337.969C85.9962 297.539 64.4147 259.168 54.6165 226.369C44.0264 190.22 48.4889 163.656 69.1951 143.134C118.607 93.8538 200.781 90.7676 261.136 97.0426ZM260.483 115.696C295.714 119.342 327.546 126.665 348.716 132.337C358.24 134.889 365.542 137.103 369.999 138.454C373.025 139.371 374.739 139.891 374.946 139.848C493.552 189.974 551.434 279.349 552.295 413.069C552.896 525.235 512.365 644.966 482.612 732.585C475.286 754.519 468.323 775.103 462.94 792.489C440.729 865.472 369.413 882.089 311.532 866.579L309.731 866.097C234.152 844.892 166.644 769.858 194.258 655.029C185.349 700.861 192.172 743.328 213.983 778.404C234.415 811.156 268.208 836.384 306.599 847.153L308.401 847.636C338.805 855.783 369.596 854.378 394.826 843.999C423.482 831.642 443.441 808.506 453.076 777.052C457.992 760.506 464.714 740.824 471.678 720.24L472.256 718.528C500.243 635.669 538.445 522.565 537.751 416.896C537.431 358.635 525.326 308.32 501.359 267.138C473.662 219.163 429.099 181.877 369.008 156.603C368.988 156.597 368.876 156.56 368.674 156.494C364.253 155.038 316.882 139.436 260.296 133.508C205.813 127.841 131.225 130.546 86.4137 175.265C67.6019 194.122 63.2924 218.314 73.0303 251.338C81.6904 281.177 101.414 315.67 122.007 352.327C167.121 432.091 223.127 531.358 198.625 636.208C207.605 590.094 203.157 541.364 185.105 487.998C167.699 436.746 140.243 387.87 115.798 344.87C70.7609 265.213 35.2258 202.345 78.082 159.515C124.969 112.455 203.177 109.755 260.483 115.696ZM343.723 150.069C323.679 144.698 293.424 137.798 260.055 134.409C205.797 128.802 131.494 131.342 86.9686 175.897C46.4131 216.446 80.1345 276.174 122.924 351.607C165.2 426.348 216.972 518.092 203.612 615.636C220.065 520.929 169.65 431.461 128.682 358.944C109.019 324.226 90.5093 291.506 82.3275 263.485C73.0681 232.279 77.0759 209.214 95.1355 191.362C137.36 149.088 208.044 146.543 259.703 151.937C315.598 157.741 362.274 173.627 362.664 173.973C419.498 197.892 461.494 233.042 487.934 278.508C510.581 317.405 522.163 365.166 522.428 420.032C522.936 520.465 486.665 627.579 460.087 706.068L459.799 706.919C453.137 726.377 446.941 744.994 442.267 760.638C433.279 790.576 414.194 812.257 387.19 823.85C362.982 834.019 334.113 835.456 305.286 827.732L303.484 827.249C267.12 817.023 235.338 793.299 215.73 761.975C196.52 731.202 189.695 694.494 195.441 654.933C174.829 758.744 237.307 826.453 306.901 846.027L308.703 846.51C363.43 861.174 431.11 845.514 452.07 776.3C456.986 759.754 463.648 740.297 470.672 719.488L471.286 717.672C499.268 634.825 537.379 521.994 536.686 416.369C535.937 289.439 480.918 204.693 368.602 157.218C368.394 157.26 366.743 156.757 363.846 155.873C359.603 154.58 352.689 152.471 343.723 150.069ZM259.627 153.123C291.073 156.48 319.752 162.958 338.67 168.027C352.859 171.829 361.747 174.693 361.912 174.978C468.389 219.924 520.319 299.979 521.016 419.895C521.584 520.103 485.314 627.216 458.736 705.706L458.447 706.557C452.011 726.075 445.59 744.631 440.915 760.276C421.207 825.722 357.162 840.425 305.362 826.546L303.786 826.123C238.041 807.579 178.905 743.596 198.507 645.159C193.155 682.472 199.642 716.87 217.642 745.831C236.035 775.382 266.257 797.721 300.369 807.345L301.945 807.767C329.197 815.069 356.593 813.72 379.269 803.864C404.62 793.035 422.728 772.3 431.232 744.163C435.666 729.42 441.784 711.989 447.919 693.598C473.09 619.477 507.486 518.136 506.879 423.108C506.566 371.125 495.671 326.204 474.343 289.591C449.387 246.695 409.731 213.62 356.155 191.057C356.134 191.052 356.019 191.014 355.813 190.945C351.597 189.548 309.285 175.523 259.11 170.365C210.274 165.245 143.721 167.689 103.797 207.683C66.9257 244.392 97.1849 298.123 135.523 365.846C174.396 434.429 222.414 519.148 206.073 608.966C219.044 516.468 169.883 429.518 129.764 358.51C89.2831 287.074 57.6003 230.548 95.8552 192.279C138.02 150.23 207.967 147.73 259.627 153.123ZM333.452 185.698C315.66 180.931 288.618 174.651 258.748 171.716C210.363 166.717 144.32 169.057 104.517 208.6C68.5099 244.522 98.1066 297.068 135.709 363.829L136.44 365.126C174.883 432.946 222.003 516.37 207.689 605.081C225.165 519.321 179.459 438.271 142.363 372.748L142.302 372.64C106.302 308.966 77.8473 258.639 112.459 224.005C150.022 186.516 212.444 184.172 258.232 188.958C305.447 193.792 344.981 206.86 349.024 208.197C349.226 208.263 349.339 208.301 349.361 208.307C399.68 229.514 436.935 260.739 460.467 300.839C480.416 335.392 490.849 377.534 491.045 426.348C491.522 515.161 459.489 610.098 436.061 679.532L435.755 680.441C429.921 697.707 424.33 714.071 420.138 727.914C402.404 786.89 345 800.233 298.605 787.802L297.029 787.38C264.944 778.3 236.507 757.404 219.329 729.627C201.669 701.338 195.91 667.624 201.967 631.178C180.758 726.301 237.429 788.326 300.281 805.873L301.857 806.295C350.729 819.39 410.973 805.359 429.656 743.741C434.089 728.997 439.983 711.507 446.343 693.175C471.514 619.054 505.91 517.714 505.243 422.91C504.657 309.783 455.59 234.357 355.403 192.063C355.288 192.129 353.916 191.703 351.445 190.936C347.738 189.787 341.56 187.871 333.452 185.698ZM258.321 190.43C286.268 193.332 311.733 199.19 328.399 203.656C340.786 206.975 348.773 209.598 349.224 209.718C443.121 249.361 489.265 320.383 489.799 426.497C490.111 514.977 458.172 609.635 434.748 679.057L434.403 680.079C428.57 697.345 422.978 713.709 418.786 727.552C401.355 785.401 344.747 798.476 299.028 786.226L297.676 785.864C239.667 769.627 187.509 713.412 204.352 626.951C200.037 659.063 205.855 688.678 221.466 713.544C237.49 739.321 264.08 758.998 294.139 767.535L295.49 767.897C338.957 779.544 392.5 767.097 408.922 712.115C412.873 699.173 417.938 683.874 423.469 667.735L423.999 666.17C445.974 601.242 475.887 512.865 475.316 430.099C475.01 384.394 465.325 344.866 446.695 312.597C424.932 274.903 390.018 245.753 342.956 225.901C342.791 225.616 304.103 212.353 257.804 207.671C215.065 203.22 156.547 205.403 121.51 240.672C89.1973 273.028 115.679 319.932 149.374 379.614L149.429 379.71C183.396 439.787 225.075 513.515 211.594 591.735C222.199 510.417 179.102 434.29 143.791 371.924L143.35 371.144C107.858 308.359 79.8296 258.776 113.629 225.043C150.846 187.944 212.758 185.705 258.321 190.43ZM324.307 221.629C281.516 210.163 175.266 188.694 122.515 241.424C90.8958 272.999 117.208 319.614 150.572 378.72L150.631 378.826C181.967 434.249 220.116 501.723 215.2 573.599C222.686 504.619 186.059 439.727 156.044 386.552C131.09 342.545 110.385 305.897 117.988 277.522C119.974 270.109 123.892 263.261 130.171 256.994C190.989 196.189 327.018 240.172 336.139 243.121C336.413 243.21 336.573 243.261 336.612 243.272C380.416 261.768 412.99 288.842 433.269 323.966C450.805 354.011 459.743 390.925 459.992 433.235C460.241 476.329 451.688 521.158 440.517 562.849C431.57 596.238 420.944 627.614 411.815 654.474C406.81 669.548 401.822 683.66 398.338 695.762C382.882 747.14 332.749 758.57 292.21 747.708L290.859 747.346C262.827 739.352 238.022 721.119 222.987 697.054C209.664 675.728 204.015 650.627 206.308 623.508C194.222 700.816 241.833 751.155 294.561 765.959L295.912 766.321C338.703 777.787 391.451 765.609 407.856 711.588C411.807 698.646 416.872 683.347 422.464 666.983L422.475 666.949C444.496 601.883 474.6 512.93 474.189 429.797C473.768 330.473 430.652 264.366 342.654 227.028C342.204 226.907 335.343 224.586 324.307 221.629ZM131.342 258.031C180.469 208.916 279.166 228.845 319.029 239.526C329.389 242.302 335.574 244.442 336.025 244.563C417.793 279.025 457.76 340.667 458.355 433.038C458.637 476.007 450.118 520.711 438.97 562.315C430.042 595.635 419.428 626.967 410.299 653.827C405.294 668.9 400.471 683.298 396.762 695.339C381.607 745.591 332.435 757.038 292.572 746.356L291.221 745.994C240.638 731.743 195.001 682.319 210.456 606.297C206.806 633.825 211.714 659.308 225.185 680.746C239.171 703.322 261.904 720.276 287.969 727.501L289.095 727.803C326.706 737.881 373.038 727.122 387.304 679.287C390.772 668.147 395.294 654.875 399.996 640.928C408.573 615.797 418.566 586.47 426.93 555.256C437.189 516.969 444.996 475.844 444.729 436.146C444.431 396.719 436.182 362.645 419.964 334.885C401.109 302.555 370.935 277.332 330.389 260.191C330.348 260.18 330.188 260.129 329.915 260.041C321.145 257.207 195.47 216.607 139.179 272.925C133.39 278.706 129.776 285.029 127.941 291.876C120.896 318.168 140.092 352.201 163.231 393.064C192.528 445.059 228.634 508.848 216.538 576.674C225.596 506.128 188.044 439.884 157.472 385.728L157.406 385.611C132.809 341.958 112.267 305.501 119.725 277.67C121.632 270.551 125.371 263.997 131.342 258.031ZM140.229 274.413C185.446 229.078 276.816 247.526 313.751 257.423C323.21 259.957 329.231 261.812 329.906 261.993C405.61 293.865 442.654 351.103 443.197 436.459C443.406 475.962 435.539 517.052 425.274 555.363C417.137 585.73 407.494 614.35 399.172 639.049L398.585 640.791C393.657 654.678 389.36 668.01 385.892 679.15C371.643 726.024 325.431 736.332 288.391 725.925C242.396 713.145 201.158 668.979 212.901 601.079C210.838 624.533 215.562 646.141 227.097 664.602C239.928 685.179 260.816 700.915 284.854 707.597L285.98 707.899C320.438 717.132 363.134 707.33 376.149 663.263C379.375 653.024 383.37 640.818 387.771 627.996L388.03 627.23C395.764 604.36 404.745 577.803 412.31 549.572C421.781 514.225 429.032 476.253 428.835 439.611C428.508 361.555 393.173 306.947 323.76 277.726C323.727 277.717 323.596 277.675 323.371 277.603C315.731 275.14 199.634 237.712 147.78 289.472C142.397 294.826 139.042 300.683 137.343 307.024C130.852 331.252 148.539 362.543 169.641 399.875L169.786 400.131C195.719 445.951 227.521 501.933 220.074 561.443C224.769 498.921 191.83 440.499 164.598 392.465C141.582 352.074 122.579 318.425 129.491 292.628C131.257 286.038 134.714 279.96 140.229 274.413ZM148.89 290.735C190.709 249.076 274.526 265.982 308.533 275.095C317.317 277.448 322.826 279.407 323.277 279.528C392.855 309.034 426.871 361.357 427.302 439.925C427.566 476.318 420.345 514.178 410.887 549.475C403.333 577.666 394.353 604.223 386.619 627.092L386.36 627.859C381.958 640.681 377.739 652.826 374.737 663.126C361.86 705.781 320.185 715.374 286.402 706.322L285.276 706.02C242.571 693.888 204.147 652.718 216.039 589.43C210.641 642.541 244.484 677.277 281.739 687.692L282.639 687.934C314.17 696.382 353.291 687.312 365.73 647.195C368.49 637.796 372.408 626.776 376.282 615.021C383.32 594.321 391.474 570.158 398.368 544.428C407.095 511.86 413.803 476.78 413.676 443.032C413.236 371.704 380.99 321.786 317.641 295.156C317.607 295.147 317.476 295.105 317.252 295.033C309.96 292.685 204.218 258.641 156.892 305.914C151.975 310.807 148.91 316.155 147.359 321.944C141.448 344.004 157.509 372.475 176.773 406.623L176.911 406.868C201.057 449.925 231.028 502.784 221.961 558.76C227.966 499.905 196.866 444.625 171.213 399.307L171.068 399.049C150.138 362.013 132.652 331.07 138.984 307.442C140.606 301.385 143.794 295.809 148.89 290.735ZM157.941 307.402C195.911 269.298 272.625 284.784 303.48 293.052C311.363 295.164 316.257 296.717 316.872 297.123C380.221 323.753 411.314 371.672 411.693 443.225C411.852 476.434 405.274 510.924 396.666 543.05C389.673 569.145 381.342 593.681 374.194 614.703C370.32 626.458 366.402 637.478 363.642 646.877C351.895 686.214 313.12 694.894 282.161 686.116C243.663 675.345 208.967 638.39 218.72 581.702C215.331 628.152 245.467 658.479 278.624 667.788L279.525 668.029C308.127 675.693 343.447 667.294 354.289 631.336C356.808 622.838 360.199 612.884 363.771 602.254C370.284 583.18 377.833 560.961 384.162 537.34C391.996 508.104 397.961 476.721 397.782 446.498C397.229 381.898 368.01 336.895 310.786 312.631C310.76 312.624 310.655 312.59 310.473 312.531C304.24 310.517 208.196 279.487 165.268 322.4C160.935 326.747 158.225 331.539 156.834 336.728C151.339 357.236 166.458 383.949 183.467 413.935C204.89 451.642 230.826 497.706 224.949 546.537C228.242 494.768 200.939 446.375 178.279 406.269L178.139 406.022C159.048 372.17 143.189 344.047 148.939 322.587C150.414 317.082 153.312 312.015 157.941 307.402ZM166.889 323.559C201.174 289.295 270.336 303.24 298.262 310.723C305.469 312.654 309.913 314.087 310.589 314.268C411.886 356.954 405.041 454.057 383.099 535.943C376.758 559.607 369.157 582 362.541 601.442C358.968 612.071 355.577 622.025 353.059 630.523C342.458 665.581 307.994 673.485 280.293 666.062L279.392 665.821C245.625 656.331 214.994 624.53 221.493 575.616C220.838 614.53 246.868 639.802 275.283 647.823L276.184 648.064C301.859 654.944 333.768 647.562 343.194 615.086C345.697 607.549 348.561 598.661 351.832 589.158C357.559 572.177 364.211 552.454 369.824 531.505C376.871 505.204 382.282 476.969 382.173 449.799C381.957 392.048 355.827 351.735 304.442 330.001C304.415 329.994 304.31 329.959 304.129 329.901C298.24 328.001 212.555 300.356 174.155 338.782C170.219 342.678 167.764 346.991 166.51 351.671C161.587 370.042 175.162 394.079 190.307 420.838C208.11 452.234 229.549 490.165 227.95 530.729C227.49 487.173 204.534 446.61 185.465 412.781C168.08 382.142 153.628 356.585 158.832 337.165C160.155 332.227 162.749 327.686 166.889 323.559ZM175.49 340.105C206.151 309.457 267.985 321.922 292.984 328.62C299.515 330.37 303.509 331.682 303.674 331.967C394.154 370.255 388.017 456.88 368.408 530.062C362.738 551.221 355.942 571.257 350.03 588.675C346.82 597.953 343.67 607.006 341.393 614.604C332.043 645.893 301.441 652.901 276.667 646.263L275.991 646.081C244.715 637.243 216.745 607.156 225.069 560.954C222.995 596.941 246.567 620.398 272.454 627.753L273.129 627.934C295.876 634.029 323.925 627.544 332.446 598.447C334.481 591.75 337.269 584.049 340.013 575.611L340.153 575.199C345.27 560.136 351.236 542.574 356.235 523.918C362.385 500.966 367.071 476.358 366.91 452.709C366.58 401.687 343.539 366.064 298.219 346.92C298.19 346.912 298.085 346.878 297.905 346.821C292.382 345.041 217.039 320.771 183.162 354.713C179.752 358.179 177.614 361.985 176.511 366.099C172.146 382.392 184.031 403.505 197.493 427.349C214.603 457.594 235.656 494.67 229.865 533.951C232.693 491.766 210.342 452.443 192.02 419.848C176.475 392.397 163.654 369.665 168.307 352.301C169.49 347.885 171.804 343.816 175.49 340.105ZM184.437 356.262C211.413 329.454 265.695 340.378 287.766 346.292C290.051 346.904 291.992 347.464 293.511 347.902C295.735 348.544 297.055 348.924 297.225 348.826C376.981 382.366 371.502 458.705 354.225 523.183C349.252 541.743 343.301 559.322 338.124 574.613L338.046 574.843C335.077 583.22 332.454 591.207 330.419 597.904C321.974 625.815 294.782 631.805 272.772 625.666C245.154 618.036 220.476 591.261 228.084 550.284C226.572 581.354 246.801 601.601 269.339 607.849L270.014 608.03C289.608 613.28 314.021 607.752 321.455 582.709C323.25 576.913 325.51 570.277 327.952 562.966C332.375 550.05 337.452 535.042 341.73 519.077C347.119 498.965 351.239 477.335 351.18 456.46C350.963 412.228 330.784 381.234 291.529 364.68C288.661 363.671 222.018 341.227 191.703 371.485C188.69 374.5 186.809 377.819 185.847 381.409C182.097 395.403 192.299 413.534 203.794 433.965L204.048 434.417C218.695 460.086 236.567 491.615 232.383 524.959C234.129 488.543 214.9 454.434 198.981 426.3C185.386 402.225 174.103 382.156 178.194 366.888C179.226 363.036 181.237 359.49 184.437 356.262ZM193.488 372.929C216.616 349.677 263.795 359.18 282.713 364.249L291.271 366.542C360.184 395.701 355.304 461.944 340.347 517.764C336.083 533.677 331 548.743 326.575 561.862L326.497 562.093C324.055 569.404 321.734 576.266 319.939 582.061C312.642 605.693 289.476 611.072 270.783 606.063L270.107 605.882C246.743 599.396 225.533 576.96 231.199 542.619C231.523 566.919 248.07 582.881 266.224 587.945L266.674 588.065C283.565 592.591 304.177 587.735 310.872 566.355C312.364 561.686 314.158 555.89 316.298 549.705C320.146 538.367 324.573 525.323 328.265 511.542C341.077 463.729 345.063 407.035 285.47 381.886C285.342 381.851 285.07 381.767 284.666 381.643C277.247 379.356 225.26 363.332 200.875 387.702C198.225 390.333 196.578 393.223 195.741 396.345C192.528 408.335 201.281 423.756 211.174 441.154C222.726 461.731 236.851 486.766 235.333 513.233C234.776 483.75 219.254 456.336 206.272 433.323C194.469 412.615 184.558 395.186 188.082 382.037C188.969 378.724 190.71 375.683 193.488 372.929ZM202.15 389.251C221.879 369.674 261.505 377.637 277.495 381.921C281.549 383.007 284.191 383.957 284.417 384.017C342.431 408.548 338.479 464.391 325.873 511.439C322.225 525.053 317.852 537.931 314.046 549.101C311.906 555.287 310.112 561.082 308.559 565.977C302.452 586.065 282.697 590.427 266.767 585.918C246.688 580.308 228.787 560.869 234.317 531.219C234.962 550.384 247.969 563.787 263.108 568.04L263.559 568.161C277.297 571.842 294.334 567.717 299.716 550.331C300.803 546.277 302.521 541.668 304.134 536.548L304.137 536.539C307.241 527.342 310.802 516.795 313.786 505.656C324.307 466.391 327.672 419.784 278.676 399.135C278.571 399.107 278.349 399.038 278.017 398.936C271.938 397.061 229.333 383.918 209.311 403.963C207.152 406.108 205.808 408.471 205.123 411.028C202.469 420.934 209.712 433.743 217.789 447.995C227.348 464.839 238.983 485.527 237.541 507.273C236.905 482.5 223.87 459.449 212.887 440.165L212.666 439.768C202.85 422.246 194.725 407.742 197.647 396.839C198.387 394.075 199.838 391.543 202.15 389.251ZM211.037 405.633C226.856 389.836 259.154 396.318 272.217 399.818L272.218 399.818C275.596 400.723 277.622 401.266 277.787 401.552C325.031 421.51 321.798 466.834 311.526 505.17C308.55 516.277 304.983 526.798 301.882 535.945C300.268 541.064 298.776 545.734 297.464 549.727C292.669 565.822 277 569.348 264.162 565.909L263.712 565.788C246.656 560.976 231.447 543.866 238.222 517.68C245.057 491.269 230.879 466.71 219.788 446.841C219.591 446.486 219.394 446.132 219.198 445.78C211.494 431.932 205.112 420.463 207.45 411.739C208.043 409.525 209.198 407.487 211.037 405.633Z" clip-rule="evenodd" fill="url(#paint_linear_0_124_0)" fill-opacity="1.000000" fill-rule="evenodd"/>
	</g>
</svg>
