<svg width="54.000000" height="54.000000" viewBox="0 0 54 54" fill="none" xmlns="http://www.w3.org/2000/svg" xmlns:xlink="http://www.w3.org/1999/xlink">
	<desc>
			Created with Pixso.
	</desc>
	<defs/>
	<path id="Vector" d="M44.3 8.86L8.86 8.86C6.42 8.86 4.45 10.85 4.45 13.29L4.43 39.87C4.43 42.31 6.42 44.3 8.86 44.3L44.3 44.3C46.74 44.3 48.73 42.31 48.73 39.87L48.73 13.29C48.73 10.85 46.74 8.86 44.3 8.86ZM43.42 18.27L27.75 28.06C27.05 28.51 26.11 28.51 25.41 28.06L9.74 18.27C9.19 17.92 8.86 17.32 8.86 16.68C8.86 15.19 10.47 14.31 11.74 15.08L26.58 24.36L41.42 15.08C42.69 14.31 44.3 15.19 44.3 16.68C44.3 17.32 43.97 17.92 43.42 18.27Z" fill="#676767" fill-opacity="1.000000" fill-rule="nonzero"/>
</svg>
