<svg width="80.000000" height="54.000000" viewBox="0 0 80 54" fill="none" xmlns="http://www.w3.org/2000/svg" xmlns:xlink="http://www.w3.org/1999/xlink">
	<desc>
			Created with Pixso.
	</desc>
	<defs/>
	<path id="Vector" d="M78.04 8.33C77.6 6.74 76.73 5.29 75.5 4.11C74.27 2.94 72.74 2.09 71.06 1.65C64.82 0.01 39.83 0.01 39.83 0.01C29.41 -0.11 18.99 0.42 8.65 1.57C6.96 2.05 5.43 2.92 4.2 4.1C2.97 5.28 2.08 6.74 1.62 8.33C0.5 14.36 -0.04 20.46 0 26.58C-0.04 32.7 0.5 38.8 1.62 44.83C2.07 46.42 2.96 47.87 4.19 49.04C5.42 50.21 6.96 51.06 8.65 51.51C14.97 53.15 39.83 53.15 39.83 53.15C50.26 53.27 60.69 52.74 71.06 51.59C72.74 51.15 74.27 50.3 75.5 49.12C76.73 47.95 77.6 46.5 78.04 44.9C79.19 38.88 79.74 32.78 79.7 26.66C79.79 20.51 79.23 14.38 78.04 8.33ZM31.89 37.95L31.89 15.21L52.68 26.58L31.89 37.95Z" fill="#676767" fill-opacity="1.000000" fill-rule="nonzero"/>
</svg>
