<svg width="25.000000" height="54.000000" viewBox="0 0 25 54" fill="none" xmlns="http://www.w3.org/2000/svg" xmlns:xlink="http://www.w3.org/1999/xlink">
	<desc>
			Created with Pixso.
	</desc>
	<defs/>
	<path id="Vector" d="M5.54 10.29C5.54 11.63 5.59 18.19 5.59 18.19L0 18.19L0 26.58L5.54 26.57L5.59 53.17L16.79 53.17L16.79 26.58L23.96 26.57C23.96 26.57 24.5 22.88 24.83 18.19C23.87 18.19 16.79 18.19 16.79 18.19C16.79 18.19 16.6 12.37 16.6 11.46C16.6 10.54 17.81 9.31 18.99 9.31L25 9.31C25 8.1 25 3.88 25 0C21.9 0 18.39 0 16.83 0C5.27 0 5.54 8.95 5.54 10.29Z" fill="#676767" fill-opacity="1.000000" fill-rule="nonzero"/>
</svg>
