<svg width="165.000000" height="26.000000" viewBox="0 0 165 26" fill="none" xmlns="http://www.w3.org/2000/svg" xmlns:xlink="http://www.w3.org/1999/xlink">
	<desc>
			Created with Pixso.
	</desc>
	<defs/>
	<path id="path5 1" d="M112.44 10.28L100.79 10.28L102.69 5.99C103.48 4.19 104.2 3.56 105.36 3.56C106.55 3.56 106.94 4.83 106.31 6.37L118.2 6.37L119.39 3.56C120.26 1.45 120.26 -0.84 118.12 -0.84L97.17 -0.84C95.27 -0.84 93.79 -0.52 92.68 1.91L88.98 10.28C87.95 12.7 88.03 14.67 90.56 14.67L102.61 14.67L100.66 19.28C100.1 20.54 99.39 21.39 97.75 21.39C96.32 21.39 96.4 20.12 97.04 18.89L85.23 18.89L83.8 22.02C82.93 24.03 83.64 25.78 85.7 25.78L106.5 25.78C108.4 25.78 110.04 24.62 110.99 22.55L114.53 14.67C115.27 12.7 114.87 10.28 112.44 10.28Z" fill="#FFFFFF" fill-opacity="1.000000" fill-rule="nonzero"/>
	<path id="path7 1" d="M163.03 4.33C162.08 4.33 161.29 5.35 161.29 6.58C161.29 7.85 162.08 8.83 163.03 8.83C163.99 8.83 164.78 7.81 164.78 6.58C164.75 5.35 163.99 4.33 163.03 4.33ZM163.03 8.41C162.24 8.41 161.63 7.6 161.63 6.58C161.63 5.6 162.27 4.79 163.03 4.79C163.8 4.79 164.43 5.6 164.43 6.58C164.43 7.6 163.8 8.41 163.03 8.41Z" fill="#FFFFFF" fill-opacity="1.000000" fill-rule="nonzero"/>
	<path id="path9 1" d="M85.6 -0.84L67.79 -0.84C65.36 -0.84 62.19 -0.84 60.31 3.56L52.44 21.39C51.33 23.81 52.28 25.78 54.34 25.78L75.03 25.78C77.14 25.78 78.49 24.94 80.15 21.39L88.03 3.56C89.06 1.27 87.47 -0.84 85.6 -0.84ZM75.58 5.99L69.69 19.28C68.9 21.18 68.19 21.39 66.39 21.39C64.57 21.39 64.12 20.54 64.65 19.28L70.62 5.99C71.49 3.98 72.52 3.56 74 3.56C75.5 3.56 76.38 4.19 75.58 5.99Z" fill="#FFFFFF" fill-opacity="1.000000" fill-rule="nonzero"/>
	<path id="path11 1" d="M54.39 -0.84L31.57 -0.84L21.74 21.39L0 21.39L0 25.78L43.85 25.78C46.76 25.78 47.71 23.88 48.34 22.44L50.7 16.99C51.33 15.52 51.33 13.86 50.06 12.91C51.33 12.91 53.05 11.75 54.08 9.36L56.43 4.02C57.64 1.38 56.22 -0.84 54.39 -0.84ZM42.66 17.1L41.47 19.59C41.16 20.44 40.6 21.39 39.28 21.39L33.44 21.39L36.45 14.67L42.11 14.67C43.14 14.67 43.14 15.94 42.66 17.1ZM47.63 5.99L46.44 8.52C46.12 9.36 45.57 10.31 44.25 10.31L38.41 10.31L41.4 3.59L47.08 3.59C48.11 3.56 48.11 4.83 47.63 5.99Z" fill="#FFFFFF" fill-opacity="1.000000" fill-rule="nonzero"/>
	<path id="path13 1" d="M163.91 5.99C163.91 5.77 163.83 5.56 163.69 5.46C163.54 5.35 163.38 5.35 163.22 5.35L162.37 5.35L162.37 7.85L162.66 7.85L162.66 6.69L163.01 6.69L163.56 7.85L163.88 7.85L163.3 6.69C163.64 6.69 163.91 6.48 163.91 5.99ZM162.98 6.37L162.66 6.37L162.66 5.6L163.17 5.6C163.4 5.6 163.62 5.63 163.62 5.95C163.62 6.44 163.25 6.37 162.98 6.37Z" fill="#FFFFFF" fill-opacity="1.000000" fill-rule="nonzero"/>
	<path id="polygon1317 1" d="M134.84 3.56L164.38 3.56L164.38 -0.84L125.02 -0.84L113.29 25.78L140.68 25.78L142.64 21.39L126.97 21.39L129.96 14.67L145.62 14.67L147.53 10.28L131.94 10.28L134.84 3.56Z" fill="#FFFFFF" fill-opacity="1.000000" fill-rule="nonzero"/>
</svg>
