<svg width="25" height="24" viewBox="0 0 25 24" fill="none" xmlns="http://www.w3.org/2000/svg">
<g clip-path="url(#clip0_143_3566)">
<path d="M5.5 8V20H19.5V8H5.5ZM5.5 6H19.5V4H5.5V6ZM20.5 22H4.5C4.23478 22 3.98043 21.8946 3.79289 21.7071C3.60536 21.5196 3.5 21.2652 3.5 21V3C3.5 2.73478 3.60536 2.48043 3.79289 2.29289C3.98043 2.10536 4.23478 2 4.5 2H20.5C20.7652 2 21.0196 2.10536 21.2071 2.29289C21.3946 2.48043 21.5 2.73478 21.5 3V21C21.5 21.2652 21.3946 21.5196 21.2071 21.7071C21.0196 21.8946 20.7652 22 20.5 22ZM7.5 10H11.5V14H7.5V10ZM7.5 16H17.5V18H7.5V16ZM13.5 11H17.5V13H13.5V11Z" fill="white"/>
</g>
<defs>
<clipPath id="clip0_143_3566">
<rect width="24" height="24" fill="white" transform="translate(0.5)"/>
</clipPath>
</defs>
</svg>
