<svg width="1448.000000" height="813.000000" viewBox="0 0 1448 813" fill="none" xmlns="http://www.w3.org/2000/svg" xmlns:xlink="http://www.w3.org/1999/xlink">
	<desc>
			Created with Pixso.
	</desc>
	<defs>
		<linearGradient id="paint_linear_0_61_0" x1="445.837585" y1="996.953369" x2="961.932922" y2="103.049957" gradientUnits="userSpaceOnUse">
			<stop stop-color="#FFD110" stop-opacity="0.000000"/>
			<stop offset="0.286458" stop-color="#109BFF"/>
			<stop offset="0.614583" stop-color="#FF0469"/>
			<stop offset="1.000000" stop-color="#04DA00" stop-opacity="0.000000"/>
		</linearGradient>
		<linearGradient id="paint_linear_0_61_1" x1="129.073608" y1="217.996948" x2="1278.827393" y2="881.807495" gradientUnits="userSpaceOnUse">
			<stop stop-color="#000000" stop-opacity="0.000000"/>
			<stop offset="0.500000" stop-color="#7C7C7C"/>
			<stop offset="1.000000" stop-color="#000000" stop-opacity="0.000000"/>
		</linearGradient>
	</defs>
	<g opacity="0.500000">
		<path id="Union" d="M1409.57 655.363L1407.74 658.518C1388.58 691.054 1363.78 719.568 1334.23 743.815C1303.29 769.169 1268.65 787.796 1231.37 799.166C1146.88 825.342 1055.27 812.61 966.216 761.961C779.415 656.023 560.254 713.833 383.841 759.99C304.528 781.127 229.429 800.874 169.336 802.512C102.587 804.514 59.4859 784.602 33.611 739.449C6.69247 692.164 -4.3867 634.519 1.06099 567.293C5.0498 513.758 19.5753 454.45 43.9751 390.517C83.3412 287.483 136.528 206.51 142.554 197.336C142.887 196.829 143.076 196.542 143.11 196.481C183.413 144.407 228.009 101.313 275.336 68.5925C319.586 37.9194 367.608 15.1609 418.004 1.42285C421.154 0.564209 424.304 -0.294434 427.288 -0.866211C326.754 24.8477 230.177 85.7368 143.964 196.974C143.916 197.056 143.687 197.408 143.289 198.019C136.728 208.093 84.2729 288.635 44.9938 390.723C6.50215 490.884 -26.3698 632.536 34.511 739.204C59.9827 783.741 102.918 803.941 169.383 801.774C229.642 799.849 304.574 780.389 383.722 759.539C472.32 736.112 572.735 709.947 672.382 702.844C781.008 695.227 873.113 712.094 953.42 754.217C774.42 653.988 564.684 709.236 395.893 753.562C319.611 773.39 247.497 792.565 189.607 794.328C125.392 795.881 83.8779 776.503 59.0469 733.483C33.3376 688.043 22.5679 632.489 27.8282 568.214C31.842 516.606 45.777 459.634 69.1364 398.16C107.361 298.756 158.745 220.171 163.842 212.375C164.089 211.998 164.227 211.786 164.25 211.747C202.943 161.802 245.812 120.388 291.292 88.896C333.695 59.4517 380.036 37.6348 428.348 24.2231C445.447 19.562 462.783 15.8027 480.641 13.1099C368.542 30.6167 260.31 89.3662 165.103 212.239C165.055 212.322 164.829 212.671 164.436 213.275C158.046 223.102 107.755 300.451 70.155 398.366C33.2476 494.47 1.60345 630.711 60.1124 732.95C84.6591 775.806 125.889 795.021 189.535 793.139C247.425 791.376 319.373 772.488 395.371 752.496C480.369 730.051 576.9 704.703 672.828 698.13C772.533 691.299 857.85 705.621 932.435 742.073C763.001 653.401 566.356 705.127 407.661 746.97C334.363 766.226 265.564 784.256 209.877 786.143C148.149 787.985 108.342 769.591 84.8856 728.13C59.9358 684.659 49.7598 631.359 54.714 569.585C58.5873 520.19 72.0974 465.268 94.5349 406.704C131.222 311.237 180.276 236.113 185.224 228.535C185.467 228.162 185.604 227.953 185.627 227.913C198.647 211.176 212.091 195.483 225.947 180.848C212.426 195.254 199.249 210.709 186.409 227.216C185.912 228.077 176.281 242.787 162.039 267.455C143.326 299.868 117.044 349.329 95.3161 406.008C59.9928 498.055 29.7422 628.599 85.7137 726.696C109.335 767.87 148.859 786.1 209.852 784.216C265.373 782.616 334.338 764.299 407.47 745.33C489.152 724.03 581.349 699.622 673.44 693.129C770.302 686.408 852.502 700.684 924.758 736.337C761.931 649.366 572.228 699.189 419.476 739.641C349.493 757.751 283.229 775.332 230.076 776.77C171.001 778.614 133.065 760.918 110.25 720.974C86.5092 679.349 76.6426 628.14 81.2906 568.866C85.0234 521.685 97.6586 468.935 119.506 412.707C154.763 320.762 202.488 248.341 206.58 242.131C206.753 241.869 206.848 241.725 206.861 241.702C275.87 153.04 357.526 95.0098 449.201 69.5356C528.111 47.783 617.034 49.4038 713.601 74.5605C890.364 120.394 1061.3 234.765 1186.29 318.399C1217.55 339.123 1246.81 358.698 1271.91 374.334C1319.54 404.13 1348.9 447.85 1356.3 500.696C1362.73 548.008 1351.49 599.652 1324.33 646.694L1322.68 649.562C1287.54 708.445 1231.01 753.826 1166.97 773.458C1098.81 794.464 1025.59 787.083 953.646 751.788C1129.27 845.8 1281.93 766.817 1350.25 651.713L1351.91 648.845C1390.56 581.89 1402.87 494.301 1359.55 425.836C1373.46 447.419 1382.44 471.779 1386.07 498.381C1393.19 546.472 1381.08 600.288 1352.59 649.624L1350.77 652.779C1313.98 714.531 1254.82 761.837 1188.37 782.369C1116.62 804.594 1039.47 796.214 963.902 758.891C1147.47 857.845 1306.96 775.332 1378.34 654.931L1380 652.063C1433.49 559.414 1438.56 428.483 1323.56 357.113C1296.19 340.163 1264.24 318.66 1230.31 296.007C1100.35 208.997 929.257 94.8657 751.172 39.9575C929.784 94.6636 1100.96 208.896 1228.41 293.948L1230.64 295.434C1264.57 318.086 1296.52 339.59 1323.89 356.54C1376.07 388.962 1407.85 436.373 1415.54 493.975C1423.2 545.059 1410.95 601.089 1381.3 652.433L1379.48 655.588C1341.2 719.921 1279.41 769.152 1210.1 790.707C1132.6 814.602 1048.79 804.533 966.942 761.61C1161.54 871.805 1331.49 785.336 1406.89 658.026L1408.71 654.871C1464.36 558.493 1469.47 422.233 1349.8 347.785C1321.29 330.178 1287.92 307.854 1252.73 284.094L1251.38 283.194C1119.91 195.45 948.681 81.1675 769.537 22.333C949.707 81.1077 1121.68 195.628 1250.96 281.723L1253.23 283.233C1288.58 306.707 1321.95 329.031 1350.29 346.924C1404.47 380.496 1437.29 430.04 1445.85 490.061C1453.38 543.358 1440.37 602.011 1409.57 655.363ZM712.244 28.9568C725.248 32.2888 738.229 35.9668 751.172 39.9575C739.425 36.3596 727.645 33.019 715.844 29.9612C714.646 29.6213 713.446 29.2864 712.244 28.9568ZM712.244 28.9568C704.26 26.9111 696.266 24.9958 688.267 23.2185C696.232 24.8267 704.286 26.7754 712.244 28.9568ZM438.763 48.2112C360.1 69.8528 288.784 114.478 225.947 180.848C354.891 43.4673 515.197 1.52148 714.96 53.1626C899.257 101.051 1077.99 220.306 1208.5 307.51C1241.01 329.342 1271.7 349.738 1297.93 366.031C1325.14 382.969 1345.34 403.368 1359.55 425.824C1344.58 402.606 1323.92 382.603 1298.05 366.482C1271.82 350.189 1241.13 329.793 1208.62 307.961C1078.11 220.757 899.375 101.502 714.794 53.4492C613.868 27.3057 521.273 25.4771 438.763 48.2112ZM120.643 413.364C141.331 359.144 166.453 311.69 184.339 280.712C193.082 265.568 200.169 254.383 204.076 248.216C206.237 244.804 207.425 242.929 207.383 242.768C337.07 75.9331 502.368 21.4465 713.058 76.1587C889.37 122.115 1060.47 236.199 1185.46 319.833C1216.43 340.393 1245.98 360.132 1271.08 375.769C1376.58 441.27 1372.05 561.419 1323.03 646.324L1321.54 648.906C1257 757.514 1114.63 832.3 949.812 748.76C1015.78 778.992 1082.83 784.735 1145.37 765.572C1206.42 746.512 1260.89 703.384 1294.25 646.918L1295.91 644.05C1321.91 599.016 1332.72 549.421 1326.1 505.061C1319.29 454.47 1291.43 412.759 1245.62 384.4C1221.66 369.42 1193.82 350.666 1163.98 330.763L1162.76 329.945C1043.52 250.402 880.469 141.636 712.268 97.8848C701.26 95.0496 690.352 92.5288 679.549 90.3237C690.087 92.5298 700.748 95.0364 711.534 97.8433C879.451 141.431 1042.5 250.197 1161.74 329.74L1162.96 330.558C1192.63 350.748 1220.93 369.379 1244.89 384.359C1345.72 446.782 1341.23 561.602 1294.37 642.778L1292.87 645.359C1231.59 748.968 1095.8 820.278 938.649 741.136C1001.31 769.656 1065.04 775.284 1124.25 756.826C1182.44 738.789 1234.29 697.586 1266.15 643.701L1267.65 641.12C1292.49 598.094 1302.54 551.122 1296.9 507.706C1290.23 459.492 1263.58 419.627 1220.05 392.582C1196.94 378.094 1170.35 360.448 1141.94 341.366L1141.93 341.359C1028.1 265.317 872.149 161.128 711.194 119.448C623.014 96.8384 542.05 95.2231 470.339 115.013C386.479 138.115 312.091 190.781 249.307 271.945C249.282 271.988 249.144 272.198 248.9 272.571C244.278 279.639 201.564 344.952 169.828 427.993C150.228 479.016 138.489 526.93 135.156 570.135C131.002 623.957 139.847 670.368 161.453 708.467C182.134 744.884 216.942 760.773 270.829 759.377C319.411 757.977 379.375 742.114 443.224 725.433C579.162 689.768 746.859 645.668 892.699 717.343C829.568 688.744 757.576 677.617 674.216 683.25C590.13 689.011 505.583 711.334 430.934 730.958C364.22 748.661 300.987 764.932 250.321 766.658C194.35 768.381 158.404 751.835 136.917 714.188C85.8548 624.662 113.484 505.226 145.805 421.006C165.736 369.409 189.699 323.964 206.757 294.419C212.92 283.743 218.185 275.074 222.015 268.766C226.212 261.855 228.686 257.779 228.735 257.008C241.451 240.597 254.533 225.322 267.99 211.181C254.188 225.535 240.837 241.045 227.954 257.704C227.93 257.746 227.79 257.959 227.543 258.337C222.763 265.636 177.724 334.403 144.455 421.374C123.648 475.143 111.485 525.106 108.011 570.525C103.385 627.134 112.823 675.8 135.639 715.745C157.411 753.556 193.759 770.718 250.181 768.872C301.131 767.309 364.245 750.588 431.244 733.049C573.855 695.333 749.747 648.99 902.795 724.343C836.574 694.176 761.244 682.35 673.887 688.415C585.799 694.543 497.367 717.682 419.12 738.288C348.971 756.685 283.157 774.143 230.004 775.581C171.379 777.302 133.728 759.771 111.315 720.442C57.7156 626.774 86.7383 501.64 120.643 413.364ZM267.99 211.181C324.724 152.177 389.074 112.707 459.783 93.2373C526.09 74.949 599.974 74.0806 679.545 90.3228C513.579 55.5786 378.194 95.374 267.99 211.181ZM170.966 428.65C190.023 379.225 212.661 336.074 229.056 307.677C241.311 286.451 249.947 273.462 250.278 272.888C368.251 121.09 518.938 71.5532 710.934 121.21C871.44 163.013 1027.39 267.202 1141.22 343.244L1141.23 343.251C1169.64 362.333 1196.52 380.144 1219.34 394.467C1315.34 454.099 1311.06 563.303 1266.34 640.75L1264.85 643.332C1204.14 745.199 1067.66 814.792 911.45 726.134C911.345 726.075 911.239 726.015 911.134 725.956C975.696 759.492 1041.79 767.334 1102.98 748.366C1158.3 731.352 1207.52 692.074 1237.89 640.771L1239.38 638.189C1262.9 597.458 1272.53 552.536 1267.15 511.948C1260.63 466.112 1235.47 428.257 1193.93 402.361C1172.24 388.694 1146.79 371.705 1119.63 353.73C1011.33 281.258 863.002 182.235 710.026 142.485C626.371 120.576 549.363 119.333 480.967 137.978C401.323 159.689 330.628 209.897 270.896 287.087C270.882 287.112 270.786 287.258 270.612 287.52C266.788 293.307 225.439 355.884 195.155 435.349C165.506 512.314 140.333 620.93 187.173 702.664C207.095 737.113 240.031 752.304 291.265 750.906C337.478 749.668 394.743 734.541 455.442 718.719C590.055 683.232 757.634 639.241 900.194 720.019C900.234 720.041 900.275 720.064 900.315 720.087C835.791 686.496 762.093 673.005 674.781 678.988C594.698 684.383 513.751 705.724 442.702 724.367C379.138 741.211 318.889 756.91 270.592 758.475C217.439 759.913 182.915 744.188 162.637 708.386C113.828 622.838 140.064 509.099 170.966 428.65ZM196.127 436.292C214.143 389.326 235.907 348.348 251.474 321.385C258.477 309.256 264.196 300.048 267.687 294.429C270.057 290.613 271.399 288.452 271.418 288.153C383.617 143.729 526.773 96.7292 709.198 143.919C862.174 183.669 1010.22 282.528 1118.52 355C1145.68 372.975 1171.13 389.964 1192.81 403.631C1283.98 460.472 1280.19 564.225 1237.63 637.942L1236.31 640.237C1179.43 736.151 1052.24 801.531 906.092 722.15C965.208 750.937 1025.57 756.947 1081.41 739.742C1133.59 723.587 1180.46 686.398 1209.35 637.677L1210.67 635.382C1233.03 596.659 1242.52 553.95 1237.73 515.617C1231.52 471.873 1207.4 436.15 1168.14 411.566C1147.43 398.844 1123.11 382.511 1097.66 365.521L1095.54 364.109C993.065 295.78 853.185 202.51 709.023 165.237C629.561 144.602 556.556 142.992 491.595 160.942C416 181.549 348.715 229.136 292.036 302.352C292.021 302.377 291.929 302.518 291.764 302.77C288.144 308.302 249.35 367.582 220.316 442.992C192.417 515.613 168.471 618.819 212.774 696.411C231.486 729.014 262.835 743.671 311.417 742.271C355.261 741.195 409.542 726.64 467.091 711.677C592.428 678.698 748.36 637.848 882.074 709.354C822.6 680.366 754.589 668.836 675.228 674.274C598.982 679.59 522.25 699.54 454.636 717.489C329.472 750.4 230.691 776.361 188.239 702.132C141.517 620.849 166.809 512.684 196.127 436.292ZM273.772 334.642C259.033 360.171 238.429 399.142 221.454 443.649C193.72 515.983 169.656 618.738 213.84 695.878C254.039 766.129 347.871 741.518 466.45 710.16C583.896 679.254 728.016 641.484 855.908 695.079C733.024 638.271 592.508 675.004 478.575 704.921C424.01 719.312 372.594 732.845 331.403 733.922C285.475 735.325 255.548 721.488 237.926 690.28C195.995 617.117 218.713 519.322 245.194 450.471C273.802 375.964 312.726 317.74 313.342 317.33C366.968 248.089 430.394 203.245 502.105 183.455C563.467 166.486 632.8 167.888 707.618 187.372C844.581 223.006 977.019 311.463 1074.07 376.281L1075.12 376.984C1099.15 393.152 1122.21 408.377 1141.78 420.443C1179.22 443.591 1201.68 477.59 1207.46 518.793C1212.35 555.65 1203.61 595.736 1182.41 632.451L1181.09 634.746C1153.69 680.886 1109.61 715.863 1059.69 731.406C1010.66 746.602 958.145 742.678 906.397 720.493C1040.14 786.294 1155.49 725.156 1207.93 636.856L1209.25 634.561C1249.49 564.859 1253.24 466.436 1166.74 412.672C1146.03 399.949 1122 383.781 1096.26 366.627L1094.02 365.129C991.555 296.81 852.012 203.764 707.911 166.507C534.772 121.619 398.982 166.37 292.723 303.132C292.704 303.431 291.407 305.511 289.131 309.163C285.797 314.51 280.365 323.223 273.772 334.642ZM246.781 451.005C263.001 409.121 282.445 372.158 296.356 348.063C306.79 329.993 313.983 318.847 314.433 318.725C415.082 189.051 543.342 146.836 706.909 189.258C843.588 224.727 976.025 313.183 1073.07 378.002L1074.12 378.705C1098.32 394.586 1121.21 410.098 1140.79 422.165C1222.61 472.85 1218.91 565.944 1180.83 631.917L1179.67 633.925C1130.06 717.324 1021.02 775.229 894.218 712.752C943.052 733.587 992.302 737.14 1038.41 722.945C1085.47 708.426 1127.09 675.087 1152.83 631.815L1153.99 629.807C1174.02 595.1 1182.34 557.063 1177.31 522.42C1171.96 483.759 1150.42 451.441 1115.26 429.607C1096.82 418.198 1075.35 403.507 1052.58 388.446C960.957 327.136 835.687 243.338 706.047 209.795C635.138 191.42 569.926 190.103 512.164 206.091C444.503 224.777 384.771 267.163 334.197 332.43C334.182 332.457 334.087 332.601 333.918 332.858C330.453 338.132 295.68 391.049 270.07 457.949C245.008 523.03 223.684 615.127 263.362 684.312C299.696 748.124 384.078 726.089 490.508 698.042C598.309 669.573 731.474 634.407 847.741 689.296C726.575 638.056 589.95 673.981 478.384 703.281C366.104 732.922 277.388 755.898 239.442 689.625C197.795 616.626 220.3 519.856 246.781 451.005ZM318.49 361.607C305.407 384.267 286.837 419.058 271.777 458.934C247.046 523.441 225.768 614.801 264.877 683.657C300.46 746 382.983 724.444 487.831 697.057L489.868 696.525C596.469 668.369 727.534 633.966 843.044 685.673C732.725 630.7 605.416 664.024 502.442 691.164L502.272 691.208C402.222 717.516 323.144 738.309 288.798 678.345C251.657 613.302 271.588 526.901 295.066 465.878C319.139 402.917 351.58 353.46 354.897 348.403C355.063 348.151 355.156 348.009 355.172 347.982C402.692 286.689 459.016 246.924 522.343 229.177C576.789 214.335 638.045 215.281 704.594 232.668C825.721 264.141 943.148 342.385 1029.03 399.61L1030.15 400.359C1051.5 414.599 1071.72 428.182 1089.02 438.935C1162.77 484.572 1159.67 568.074 1125.56 627.163L1124.4 629.171C1100.15 669.861 1061.16 701.275 1016.97 714.772C971.901 728.742 923.854 724.44 876.462 702.954C998.151 766.432 1103.61 711.197 1150.79 631.404L1151.95 629.396C1187.89 567.152 1191.09 479.509 1114.1 431.615C1095.66 420.206 1074.02 405.801 1051.42 390.454C959.798 329.144 834.528 245.346 705.172 211.967C550.892 171.847 429.997 211.812 335.288 333.825C335.335 334.005 334.247 335.733 332.288 338.843C329.349 343.507 324.452 351.281 318.49 361.607ZM297.104 466.29C311.408 429.036 328.818 396.254 341.073 375.028C350.182 359.251 356.712 349.254 357.043 348.68C445.813 234.329 559.627 196.778 704.335 234.431C824.947 266.008 942.027 344.022 1027.89 401.237L1029.16 402.08C1050.51 416.32 1070.73 429.903 1088.02 440.656C1160.35 485.472 1157.19 567.786 1123.57 626.014L1122.58 627.735C1078.98 701.366 983.098 752.518 871.588 698.156C913.723 715.688 956.21 718.426 995.856 706.025C1036.9 693.387 1073.54 664.062 1096.3 625.954L1097.3 624.233C1129.26 568.873 1132.14 490.986 1063.35 448.591C1047.19 438.495 1028.23 426.02 1008.3 412.6L1006.36 411.308C926.08 357.704 816.804 284.739 703.876 255.583C641.52 239.469 584.101 238.445 533.255 252.305C473.859 268.497 421.229 305.805 376.761 363.124C376.311 363.246 343.918 411.473 320.393 473.234C298.499 530.2 279.796 611.19 314.849 671.968C346.944 727.958 420.63 708.631 514.389 684.038L514.541 683.998C608.94 659.176 724.787 628.722 826.318 675.495C719.502 631.543 599.862 663.073 501.848 688.908L500.622 689.231C401.972 715.163 324.065 735.642 290.645 677.116C253.907 612.689 273.791 527.026 297.104 466.29ZM364.034 387.137C332.569 441.636 263.974 579.491 316.246 670.862C347.533 725.62 420.763 706.419 513.616 682.073L513.781 682.03C600.87 659.13 706.896 631.251 802.963 663.994C711.792 628.776 609.845 655.503 526.308 677.406C457.133 695.688 399.555 710.809 363.728 690.125C354.369 684.721 346.494 676.874 340.285 666.001C280.006 560.653 390.291 390.129 397.686 378.695C397.908 378.351 398.037 378.151 398.066 378.101C439.481 324.756 488.418 289.905 543.764 274.818C591.177 261.652 644.758 262.755 702.471 277.718C761.25 292.966 819.133 320.904 871.772 351.295C913.929 375.634 952.723 401.547 985.921 423.775C1004.59 436.087 1021.97 448.028 1037.16 457.181C1101.4 496.949 1098.4 569.793 1068.59 621.424L1067.59 623.146C1046.32 658.672 1012.3 686.073 973.964 697.975C939.983 708.521 903.705 707.182 867.62 694.229C968.429 738.762 1054.62 691.718 1094.31 624.804L1095.31 623.083C1126.77 568.584 1129.73 491.886 1062.24 449.861C1046.07 439.765 1027.12 427.289 1006.9 413.706L1006.86 413.678C926.404 359.961 816.415 286.526 703.048 257.017C567.627 221.666 461.628 256.846 378.183 363.944C377.852 364.518 372.149 373.082 364.034 387.137ZM342.131 664.772C293.441 579.676 357.14 451.615 386.452 400.844C394.07 387.65 399.276 379.947 399.607 379.373C476.828 279.772 575.58 247.293 701.596 279.89C760.217 295.047 817.942 322.893 870.472 353.222C912.542 377.51 951.279 403.391 984.477 425.619C1003.15 437.93 1020.97 449.749 1036 459.188C1098.82 498.136 1096.19 569.669 1066.88 620.439L1065.89 622.16C1027.74 686.332 943.529 731.001 845.721 682.318C881.859 697.28 918.383 699.771 952.568 689.063C988.494 678.062 1020 653.037 1039.5 619.927L1040.33 618.493C1067.98 570.591 1070.49 503.199 1010.63 466.344C996.746 457.562 980.347 446.563 963.094 435.073C932.047 414.228 895.809 389.923 856.398 367.169L856.397 367.168C808.057 339.259 754.943 313.684 700.781 299.689C646.977 285.836 597.518 284.817 553.705 297.002C502.693 311.15 457.165 343.38 418.803 392.75C418.773 392.802 418.644 393.002 418.423 393.345C411.315 404.34 309.472 561.897 365.318 659.418C371.046 669.443 378.318 676.684 386.963 681.676C420.159 700.841 473.618 686.844 537.839 669.912C619.501 648.567 719.748 622.156 807.637 663.27C714.918 625.335 610.792 652.84 525.714 675.151L525.53 675.199C456.97 693.12 399.713 708.086 364.572 687.798C355.585 682.609 348.044 675.114 342.131 664.772ZM367.733 658.518C322.743 580.147 381.711 461.594 408.87 414.552C415.826 402.505 420.581 394.924 421.078 394.064C492.524 301.837 584.196 271.772 700.64 301.903C754.514 315.905 807.559 341.551 855.93 369.478C894.272 391.614 929.676 415.183 960.23 435.523L962.385 436.958C979.472 448.736 996.037 459.447 1009.92 468.229C1068.48 504.714 1065.4 571.778 1037.51 618.778C1003.07 677.193 927.647 717.735 839.529 677.083C870.704 688.394 901.879 689.734 931.291 680.604C964.067 670.461 993.233 647.525 1011.24 616.997L1012.07 615.563C1037.4 571.677 1039.87 509.614 984.679 475.837C971.929 467.711 956.786 457.821 940.955 447.151L940.007 446.519C911.727 427.647 878.887 405.731 843.242 385.152C798.613 359.385 749.587 335.712 699.613 322.727C593.19 294.94 505.734 323.615 440.227 408.18C440.204 408.221 440.098 408.385 439.915 408.667C433.731 418.248 339.756 563.826 391.038 653.616C396.336 662.93 403.069 669.647 411.075 674.269C441.665 691.93 490.83 679.008 549.489 663.591L549.891 663.485C621.893 644.517 709.909 621.183 788.192 652.909C704.787 623.864 613.029 647.874 537.529 667.821C473.997 684.755 421.133 698.628 388.562 679.823C380.241 675.019 373.244 668.082 367.733 658.518ZM393.169 652.552C351.925 580.168 405.997 471.409 431.004 428.096C437.462 416.909 442.171 410.067 442.502 409.493C508.458 324.805 592.315 297.112 699.472 324.941C749.132 337.744 798.017 361.336 842.583 387.066C878.178 407.617 911.017 429.531 939.297 448.403L940.246 449.036C956.077 459.706 971.054 469.883 983.969 477.722C1037.29 510.801 1034.92 571.388 1010.08 614.414L1009.25 615.848C976.905 669.991 906.6 707.76 824.813 668.563C895.147 695.179 954.992 661.36 982.977 614.066L983.639 612.919C1006.82 572.761 1008.96 515.864 958.937 484.304C947.159 477.122 933.603 467.765 919.029 458.203C893.446 441.07 863.56 421.154 831.074 402.398C789.952 378.657 744.664 356.773 698.657 344.74C601.356 319.542 521.43 345.68 461.698 422.87C461.674 422.913 461.568 423.077 461.387 423.358C455.49 432.501 369.957 565.111 416.805 647.075C421.647 655.584 427.795 661.718 435.104 665.939C462.958 682.02 507.68 670.306 561.32 656.256L561.706 656.155C629.29 638.636 712.383 616.678 785.259 649.36C707.328 619.835 620.519 642.464 549.297 661.23L548.892 661.336C490.701 676.624 442.084 689.396 412.252 672.172C404.605 667.757 398.192 661.371 393.169 652.552ZM419.22 646.175C381.392 580.353 430.899 480.814 453.587 441.517C459.383 431.477 463.311 425.331 464.092 424.635C523.824 347.445 600.6 322.165 698.185 347.527C743.469 359.322 788.003 380.814 828.566 404.233C861.514 423.255 891.842 443.549 917.823 460.949C932.397 470.511 945.953 479.867 957.73 487.05C1006.95 517.379 1004.41 573.662 980.986 612.917C952.059 661.783 888.884 695.966 815.3 662.101C877.299 683.541 929.758 653.209 954.715 611.136L955.378 609.989C976.41 573.561 978.055 522.115 933.101 494.248C922.46 487.722 910.161 479.474 897.008 470.733C873.445 454.906 845.982 436.523 816.159 419.305C779.245 397.993 738.715 378.465 697.489 367.779C609.309 345.169 537.198 368.936 482.957 438.587C482.938 438.619 482.853 438.751 482.705 438.979C477.653 446.795 399.818 567.202 442.359 641.559C446.674 649.07 452.196 654.518 458.747 658.301C484.641 673.25 526.62 662.192 573.758 649.728C633.038 634.007 705.37 615.125 769.69 640.834C700.413 617.603 624.403 637.516 561.396 654.064L561.008 654.166C507.835 668.086 463.661 679.649 436.565 664.006C429.614 659.992 423.787 654.188 419.22 646.175ZM444.537 639.757C410.575 580.374 455.185 490.629 475.72 455.061C481.02 445.882 484.616 440.31 485.113 439.449C580.767 316.057 710.472 360.564 813.861 420.256C843.74 437.506 871.42 456.025 895.446 472.125C908.599 480.866 920.898 489.115 931.538 495.64C975.355 522.85 973.354 572.944 952.984 608.225L952.322 609.372C926.888 652.22 872.23 682.699 808.021 656.092C860.777 671.071 904.838 644.537 926.289 608.492L926.951 607.344C945.831 574.645 947.598 528.241 906.862 503.575C897.525 497.419 886.482 490.278 874.751 482.358C853.747 468.366 829.351 452.115 802.9 436.844C769.693 417.672 733.246 400.043 696.202 390.365C617.475 369.771 552.895 391 504.262 453.564C504.243 453.598 504.157 453.73 504.011 453.957C499.241 461.343 429.855 568.776 467.96 635.305C471.808 642.108 476.772 647.033 482.682 650.445C505.876 663.836 543.641 653.927 585.691 642.849C635.049 629.804 694.656 614.14 749.31 631.014C689.818 615.88 626.066 632.672 572.926 646.571C524.76 659.316 484.602 669.878 460.082 655.722C453.847 652.122 448.624 646.924 444.537 639.757ZM470.257 633.954C439.876 580.845 479.756 500.607 498.138 468.768C502.941 460.45 506.206 455.451 506.656 455.328C592.314 345.171 708.01 384.916 800.411 438.263C827.126 453.688 851.894 470.249 873.426 484.653C884.872 492.409 896.034 500.001 905.537 505.87C944.686 530.002 942.893 574.479 924.677 606.031L924.18 606.892C900.558 646.561 849.221 674.011 789.383 645.889C837.626 661.751 878.303 637.929 897.909 605.11L898.406 604.249C915.132 575.279 916.69 534.491 880.22 512.287C871.854 507.075 862.399 500.469 851.924 493.656L851.415 493.315C832.797 480.853 811.09 466.323 787.535 452.723C758.555 435.992 726.778 420.669 694.512 412.335C624.906 394.331 567.857 413.025 524.999 468.213C524.978 468.249 524.892 468.382 524.747 468.606C520.278 475.533 459.318 570.014 492.993 628.722C496.449 634.649 500.841 638.957 506.035 641.955C526.607 653.833 559.763 645.18 597.221 635.355C644.749 622.846 703.042 607.402 754.393 629.55C697.989 610.414 636.156 626.822 584.979 640.143C541.836 651.518 506.129 660.867 484.205 648.209C478.63 644.99 473.945 640.348 470.257 633.954ZM495.574 627.535C469.059 580.865 504.042 510.422 520.271 482.311C521.951 479.402 523.433 476.944 524.592 475.02L524.593 475.02C526.29 472.203 527.297 470.532 527.227 470.264C602.447 373.087 704.378 408.21 785.789 455.212C809.224 468.742 830.958 483.257 849.865 495.884L850.149 496.073C860.458 503.173 870.364 509.657 878.729 514.869C913.612 536.538 911.698 575.973 895.184 603.919C874.564 639.008 828.964 663.145 775.98 637.902C817.728 651.208 852.793 630.807 869.648 602.18L870.145 601.32C884.553 576.365 886.068 540.906 854.716 521.658C847.488 517.103 839.288 511.604 830.235 505.612C814.285 494.88 795.726 482.492 775.569 470.854C750.175 456.193 722.244 442.722 693.794 435.252C633.476 419.549 583.792 435.994 546.708 483.807C544.271 487.372 489.02 570.591 518.998 623.084C521.988 628.304 525.81 632.082 530.344 634.7C548.013 644.901 576.483 637.478 608.565 629.114L609.274 628.929C649.652 618.141 699.205 605.053 743.061 622.841C694.119 607.282 640.551 621.297 596.343 632.936C558.521 642.86 527.01 651.064 507.734 639.935C502.87 637.126 498.785 633.088 495.574 627.535ZM521.626 621.16C498.526 581.051 528.944 519.828 542.855 495.734L549.148 484.834C614.383 400.933 702.79 431.583 773.269 472.274C793.361 483.874 811.996 496.29 828.221 507.101L828.507 507.292C837.56 513.283 846.044 518.946 853.272 523.502C882.752 542.052 881.497 575.748 867.751 599.555L867.255 600.416C849.766 630.092 811.356 651.045 766.687 630.856C799.9 639.203 827.768 622.299 841.388 599.25L841.719 598.676C854.139 577.163 855.16 547.156 828.524 530.248C822.718 526.513 815.49 521.958 807.859 516.787C793.844 507.412 777.72 496.628 760.32 486.582C699.952 451.728 624.218 425.757 567.895 498.334C567.801 498.497 567.586 498.839 567.266 499.348C561.403 508.691 520.325 574.144 544.481 616.38C547.082 620.963 550.407 624.266 554.348 626.542C569.487 635.282 593.73 628.865 621.089 621.599C653.391 613.21 692.718 602.907 728.2 614.562C687.842 604.66 644.758 616.018 608.608 625.485C576.035 634.171 548.628 641.449 532.027 631.865C527.844 629.449 524.347 625.963 521.626 621.16ZM547.062 615.193C527.709 581.072 553.231 529.643 564.989 509.277C567.97 504.114 570.241 500.836 570.407 500.549C625.305 429.911 699.89 455.528 759.293 489.824C776.483 499.748 792.401 510.4 806.203 519.656C813.834 524.826 821.062 529.382 827.152 533.281C852.248 548.917 850.871 577.571 838.828 597.772C823.751 623.262 790.645 640.766 752.312 622.458C778.653 628.509 801.726 615.531 813.126 596.318L813.458 595.744C823.56 578.247 824.253 553.405 802.569 539.739C797.451 536.784 791.81 532.762 785.435 528.699L785.424 528.692C774.05 521.111 761.004 512.416 746.941 504.296C697.364 475.673 635.139 454.203 588.868 513.884C588.791 514.018 588.615 514.298 588.353 514.715C583.548 522.369 549.869 576.008 569.751 610.698C571.872 614.433 574.592 617.13 577.82 618.994C590.328 626.215 610.455 620.921 632.856 615.006C659.338 607.998 691.827 599.534 720.911 609.382C686.935 601.287 650.71 610.816 620.376 618.893L619.754 619.054C592.255 626.169 569.494 632.057 555.727 624.109C552.238 622.094 549.326 619.191 547.062 615.193ZM572.663 608.938C557.01 581.542 577.801 539.621 587.406 522.984L587.407 522.983C589.891 518.681 591.381 516.1 591.831 515.977C636.511 458.447 697.039 479.272 745.441 507.217C759.465 515.314 772.472 524.008 783.779 531.568C790.154 535.631 795.96 539.365 800.913 542.607C821.056 555.002 820.054 577.753 810.614 594.103L810.283 594.676C797.412 616.312 768.477 630.967 735.325 612.209C701.889 593.288 663.192 603.836 632.025 611.849L630.36 612.274C608.648 617.824 590.665 622.421 579.651 616.062C576.855 614.448 574.508 612.128 572.663 608.938Z" clip-rule="evenodd" fill="url(#paint_linear_0_61_0)" fill-opacity="1.000000" fill-rule="evenodd"/>
		<path id="Union" d="M1409.57 655.363L1407.74 658.518C1388.58 691.054 1363.78 719.568 1334.23 743.815C1303.29 769.169 1268.65 787.796 1231.37 799.166C1146.88 825.342 1055.27 812.61 966.216 761.961C779.415 656.023 560.254 713.833 383.841 759.99C304.528 781.127 229.429 800.874 169.336 802.512C102.587 804.514 59.4859 784.602 33.611 739.449C6.69247 692.164 -4.3867 634.519 1.06099 567.293C5.0498 513.758 19.5753 454.45 43.9751 390.517C83.3412 287.483 136.528 206.51 142.554 197.336C142.887 196.829 143.076 196.542 143.11 196.481C183.413 144.407 228.009 101.313 275.336 68.5925C319.586 37.9194 367.608 15.1609 418.004 1.42285C421.154 0.564209 424.304 -0.294434 427.288 -0.866211C326.754 24.8477 230.177 85.7368 143.964 196.974C143.916 197.056 143.687 197.408 143.289 198.019C136.728 208.093 84.2729 288.635 44.9938 390.723C6.50215 490.884 -26.3698 632.536 34.511 739.204C59.9827 783.741 102.918 803.941 169.383 801.774C229.642 799.849 304.574 780.389 383.722 759.539C472.32 736.112 572.735 709.947 672.382 702.844C781.008 695.227 873.113 712.094 953.42 754.217C774.42 653.988 564.684 709.236 395.893 753.562C319.611 773.39 247.497 792.565 189.607 794.328C125.392 795.881 83.8779 776.503 59.0469 733.483C33.3376 688.043 22.5679 632.489 27.8282 568.214C31.842 516.606 45.777 459.634 69.1364 398.16C107.361 298.756 158.745 220.171 163.842 212.375C164.089 211.998 164.227 211.786 164.25 211.747C202.943 161.802 245.812 120.388 291.292 88.896C333.695 59.4517 380.036 37.6348 428.348 24.2231C445.447 19.562 462.783 15.8027 480.641 13.1099C368.542 30.6167 260.31 89.3662 165.103 212.239C165.055 212.322 164.829 212.671 164.436 213.275C158.046 223.102 107.755 300.451 70.155 398.366C33.2476 494.47 1.60345 630.711 60.1124 732.95C84.6591 775.806 125.889 795.021 189.535 793.139C247.425 791.376 319.373 772.488 395.371 752.496C480.369 730.051 576.9 704.703 672.828 698.13C772.533 691.299 857.85 705.621 932.435 742.073C763.001 653.401 566.356 705.127 407.661 746.97C334.363 766.226 265.564 784.256 209.877 786.143C148.149 787.985 108.342 769.591 84.8856 728.13C59.9358 684.659 49.7598 631.359 54.714 569.585C58.5873 520.19 72.0974 465.268 94.5349 406.704C131.222 311.237 180.276 236.113 185.224 228.535C185.467 228.162 185.604 227.953 185.627 227.913C198.647 211.176 212.091 195.483 225.947 180.848C212.426 195.254 199.249 210.709 186.409 227.216C185.912 228.077 176.281 242.787 162.039 267.455C143.326 299.868 117.044 349.329 95.3161 406.008C59.9928 498.055 29.7422 628.599 85.7137 726.696C109.335 767.87 148.859 786.1 209.852 784.216C265.373 782.616 334.338 764.299 407.47 745.33C489.152 724.03 581.349 699.622 673.44 693.129C770.302 686.408 852.502 700.684 924.758 736.337C761.931 649.366 572.228 699.189 419.476 739.641C349.493 757.751 283.229 775.332 230.076 776.77C171.001 778.614 133.065 760.918 110.25 720.974C86.5092 679.349 76.6426 628.14 81.2906 568.866C85.0234 521.685 97.6586 468.935 119.506 412.707C154.763 320.762 202.488 248.341 206.58 242.131C206.753 241.869 206.848 241.725 206.861 241.702C275.87 153.04 357.526 95.0098 449.201 69.5356C528.111 47.783 617.034 49.4038 713.601 74.5605C890.364 120.394 1061.3 234.765 1186.29 318.399C1217.55 339.123 1246.81 358.698 1271.91 374.334C1319.54 404.13 1348.9 447.85 1356.3 500.696C1362.73 548.008 1351.49 599.652 1324.33 646.694L1322.68 649.562C1287.54 708.445 1231.01 753.826 1166.97 773.458C1098.81 794.464 1025.59 787.083 953.646 751.788C1129.27 845.8 1281.93 766.817 1350.25 651.713L1351.91 648.845C1390.56 581.89 1402.87 494.301 1359.55 425.836C1373.46 447.419 1382.44 471.779 1386.07 498.381C1393.19 546.472 1381.08 600.288 1352.59 649.624L1350.77 652.779C1313.98 714.531 1254.82 761.837 1188.37 782.369C1116.62 804.594 1039.47 796.214 963.902 758.891C1147.47 857.845 1306.96 775.332 1378.34 654.931L1380 652.063C1433.49 559.414 1438.56 428.483 1323.56 357.113C1296.19 340.163 1264.24 318.66 1230.31 296.007C1100.35 208.997 929.257 94.8657 751.172 39.9575C929.784 94.6636 1100.96 208.896 1228.41 293.948L1230.64 295.434C1264.57 318.086 1296.52 339.59 1323.89 356.54C1376.07 388.962 1407.85 436.373 1415.54 493.975C1423.2 545.059 1410.95 601.089 1381.3 652.433L1379.48 655.588C1341.2 719.921 1279.41 769.152 1210.1 790.707C1132.6 814.602 1048.79 804.533 966.942 761.61C1161.54 871.805 1331.49 785.336 1406.89 658.026L1408.71 654.871C1464.36 558.493 1469.47 422.233 1349.8 347.785C1321.29 330.178 1287.92 307.854 1252.73 284.094L1251.38 283.194C1119.91 195.45 948.681 81.1675 769.537 22.333C949.707 81.1077 1121.68 195.628 1250.96 281.723L1253.23 283.233C1288.58 306.707 1321.95 329.031 1350.29 346.924C1404.47 380.496 1437.29 430.04 1445.85 490.061C1453.38 543.358 1440.37 602.011 1409.57 655.363ZM712.244 28.9568C725.248 32.2888 738.229 35.9668 751.172 39.9575C739.425 36.3596 727.645 33.019 715.844 29.9612C714.646 29.6213 713.446 29.2864 712.244 28.9568ZM712.244 28.9568C704.26 26.9111 696.266 24.9958 688.267 23.2185C696.232 24.8267 704.286 26.7754 712.244 28.9568ZM438.763 48.2112C360.1 69.8528 288.784 114.478 225.947 180.848C354.891 43.4673 515.197 1.52148 714.96 53.1626C899.257 101.051 1077.99 220.306 1208.5 307.51C1241.01 329.342 1271.7 349.738 1297.93 366.031C1325.14 382.969 1345.34 403.368 1359.55 425.824C1344.58 402.606 1323.92 382.603 1298.05 366.482C1271.82 350.189 1241.13 329.793 1208.62 307.961C1078.11 220.757 899.375 101.502 714.794 53.4492C613.868 27.3057 521.273 25.4771 438.763 48.2112ZM120.643 413.364C141.331 359.144 166.453 311.69 184.339 280.712C193.082 265.568 200.169 254.383 204.076 248.216C206.237 244.804 207.425 242.929 207.383 242.768C337.07 75.9331 502.368 21.4465 713.058 76.1587C889.37 122.115 1060.47 236.199 1185.46 319.833C1216.43 340.393 1245.98 360.132 1271.08 375.769C1376.58 441.27 1372.05 561.419 1323.03 646.324L1321.54 648.906C1257 757.514 1114.63 832.3 949.812 748.76C1015.78 778.992 1082.83 784.735 1145.37 765.572C1206.42 746.512 1260.89 703.384 1294.25 646.918L1295.91 644.05C1321.91 599.016 1332.72 549.421 1326.1 505.061C1319.29 454.47 1291.43 412.759 1245.62 384.4C1221.66 369.42 1193.82 350.666 1163.98 330.763L1162.76 329.945C1043.52 250.402 880.469 141.636 712.268 97.8848C701.26 95.0496 690.352 92.5288 679.549 90.3237C690.087 92.5298 700.748 95.0364 711.534 97.8433C879.451 141.431 1042.5 250.197 1161.74 329.74L1162.96 330.558C1192.63 350.748 1220.93 369.379 1244.89 384.359C1345.72 446.782 1341.23 561.602 1294.37 642.778L1292.87 645.359C1231.59 748.968 1095.8 820.278 938.649 741.136C1001.31 769.656 1065.04 775.284 1124.25 756.826C1182.44 738.789 1234.29 697.586 1266.15 643.701L1267.65 641.12C1292.49 598.094 1302.54 551.122 1296.9 507.706C1290.23 459.492 1263.58 419.627 1220.05 392.582C1196.94 378.094 1170.35 360.448 1141.94 341.366L1141.93 341.359C1028.1 265.317 872.149 161.128 711.194 119.448C623.014 96.8384 542.05 95.2231 470.339 115.013C386.479 138.115 312.091 190.781 249.307 271.945C249.282 271.988 249.144 272.198 248.9 272.571C244.278 279.639 201.564 344.952 169.828 427.993C150.228 479.016 138.489 526.93 135.156 570.135C131.002 623.957 139.847 670.368 161.453 708.467C182.134 744.884 216.942 760.773 270.829 759.377C319.411 757.977 379.375 742.114 443.224 725.433C579.162 689.768 746.859 645.668 892.699 717.343C829.568 688.744 757.576 677.617 674.216 683.25C590.13 689.011 505.583 711.334 430.934 730.958C364.22 748.661 300.987 764.932 250.321 766.658C194.35 768.381 158.404 751.835 136.917 714.188C85.8548 624.662 113.484 505.226 145.805 421.006C165.736 369.409 189.699 323.964 206.757 294.419C212.92 283.743 218.185 275.074 222.015 268.766C226.212 261.855 228.686 257.779 228.735 257.008C241.451 240.597 254.533 225.322 267.99 211.181C254.188 225.535 240.837 241.045 227.954 257.704C227.93 257.746 227.79 257.959 227.543 258.337C222.763 265.636 177.724 334.403 144.455 421.374C123.648 475.143 111.485 525.106 108.011 570.525C103.385 627.134 112.823 675.8 135.639 715.745C157.411 753.556 193.759 770.718 250.181 768.872C301.131 767.309 364.245 750.588 431.244 733.049C573.855 695.333 749.747 648.99 902.795 724.343C836.574 694.176 761.244 682.35 673.887 688.415C585.799 694.543 497.367 717.682 419.12 738.288C348.971 756.685 283.157 774.143 230.004 775.581C171.379 777.302 133.728 759.771 111.315 720.442C57.7156 626.774 86.7383 501.64 120.643 413.364ZM267.99 211.181C324.724 152.177 389.074 112.707 459.783 93.2373C526.09 74.949 599.974 74.0806 679.545 90.3228C513.579 55.5786 378.194 95.374 267.99 211.181ZM170.966 428.65C190.023 379.225 212.661 336.074 229.056 307.677C241.311 286.451 249.947 273.462 250.278 272.888C368.251 121.09 518.938 71.5532 710.934 121.21C871.44 163.013 1027.39 267.202 1141.22 343.244L1141.23 343.251C1169.64 362.333 1196.52 380.144 1219.34 394.467C1315.34 454.099 1311.06 563.303 1266.34 640.75L1264.85 643.332C1204.14 745.199 1067.66 814.792 911.45 726.134C911.345 726.075 911.239 726.015 911.134 725.956C975.696 759.492 1041.79 767.334 1102.98 748.366C1158.3 731.352 1207.52 692.074 1237.89 640.771L1239.38 638.189C1262.9 597.458 1272.53 552.536 1267.15 511.948C1260.63 466.112 1235.47 428.257 1193.93 402.361C1172.24 388.694 1146.79 371.705 1119.63 353.73C1011.33 281.258 863.002 182.235 710.026 142.485C626.371 120.576 549.363 119.333 480.967 137.978C401.323 159.689 330.628 209.897 270.896 287.087C270.882 287.112 270.786 287.258 270.612 287.52C266.788 293.307 225.439 355.884 195.155 435.349C165.506 512.314 140.333 620.93 187.173 702.664C207.095 737.113 240.031 752.304 291.265 750.906C337.478 749.668 394.743 734.541 455.442 718.719C590.055 683.232 757.634 639.241 900.194 720.019C900.234 720.041 900.275 720.064 900.315 720.087C835.791 686.496 762.093 673.005 674.781 678.988C594.698 684.383 513.751 705.724 442.702 724.367C379.138 741.211 318.889 756.91 270.592 758.475C217.439 759.913 182.915 744.188 162.637 708.386C113.828 622.838 140.064 509.099 170.966 428.65ZM196.127 436.292C214.143 389.326 235.907 348.348 251.474 321.385C258.477 309.256 264.196 300.048 267.687 294.429C270.057 290.613 271.399 288.452 271.418 288.153C383.617 143.729 526.773 96.7292 709.198 143.919C862.174 183.669 1010.22 282.528 1118.52 355C1145.68 372.975 1171.13 389.964 1192.81 403.631C1283.98 460.472 1280.19 564.225 1237.63 637.942L1236.31 640.237C1179.43 736.151 1052.24 801.531 906.092 722.15C965.208 750.937 1025.57 756.947 1081.41 739.742C1133.59 723.587 1180.46 686.398 1209.35 637.677L1210.67 635.382C1233.03 596.659 1242.52 553.95 1237.73 515.617C1231.52 471.873 1207.4 436.15 1168.14 411.566C1147.43 398.844 1123.11 382.511 1097.66 365.521L1095.54 364.109C993.065 295.78 853.185 202.51 709.023 165.237C629.561 144.602 556.556 142.992 491.595 160.942C416 181.549 348.715 229.136 292.036 302.352C292.021 302.377 291.929 302.518 291.764 302.77C288.144 308.302 249.35 367.582 220.316 442.992C192.417 515.613 168.471 618.819 212.774 696.411C231.486 729.014 262.835 743.671 311.417 742.271C355.261 741.195 409.542 726.64 467.091 711.677C592.428 678.698 748.36 637.848 882.074 709.354C822.6 680.366 754.589 668.836 675.228 674.274C598.982 679.59 522.25 699.54 454.636 717.489C329.472 750.4 230.691 776.361 188.239 702.132C141.517 620.849 166.809 512.684 196.127 436.292ZM273.772 334.642C259.033 360.171 238.429 399.142 221.454 443.649C193.72 515.983 169.656 618.738 213.84 695.878C254.039 766.129 347.871 741.518 466.45 710.16C583.896 679.254 728.016 641.484 855.908 695.079C733.024 638.271 592.508 675.004 478.575 704.921C424.01 719.312 372.594 732.845 331.403 733.922C285.475 735.325 255.548 721.488 237.926 690.28C195.995 617.117 218.713 519.322 245.194 450.471C273.802 375.964 312.726 317.74 313.342 317.33C366.968 248.089 430.394 203.245 502.105 183.455C563.467 166.486 632.8 167.888 707.618 187.372C844.581 223.006 977.019 311.463 1074.07 376.281L1075.12 376.984C1099.15 393.152 1122.21 408.377 1141.78 420.443C1179.22 443.591 1201.68 477.59 1207.46 518.793C1212.35 555.65 1203.61 595.736 1182.41 632.451L1181.09 634.746C1153.69 680.886 1109.61 715.863 1059.69 731.406C1010.66 746.602 958.145 742.678 906.397 720.493C1040.14 786.294 1155.49 725.156 1207.93 636.856L1209.25 634.561C1249.49 564.859 1253.24 466.436 1166.74 412.672C1146.03 399.949 1122 383.781 1096.26 366.627L1094.02 365.129C991.555 296.81 852.012 203.764 707.911 166.507C534.772 121.619 398.982 166.37 292.723 303.132C292.704 303.431 291.407 305.511 289.131 309.163C285.797 314.51 280.365 323.223 273.772 334.642ZM246.781 451.005C263.001 409.121 282.445 372.158 296.356 348.063C306.79 329.993 313.983 318.847 314.433 318.725C415.082 189.051 543.342 146.836 706.909 189.258C843.588 224.727 976.025 313.183 1073.07 378.002L1074.12 378.705C1098.32 394.586 1121.21 410.098 1140.79 422.165C1222.61 472.85 1218.91 565.944 1180.83 631.917L1179.67 633.925C1130.06 717.324 1021.02 775.229 894.218 712.752C943.052 733.587 992.302 737.14 1038.41 722.945C1085.47 708.426 1127.09 675.087 1152.83 631.815L1153.99 629.807C1174.02 595.1 1182.34 557.063 1177.31 522.42C1171.96 483.759 1150.42 451.441 1115.26 429.607C1096.82 418.198 1075.35 403.507 1052.58 388.446C960.957 327.136 835.687 243.338 706.047 209.795C635.138 191.42 569.926 190.103 512.164 206.091C444.503 224.777 384.771 267.163 334.197 332.43C334.182 332.457 334.087 332.601 333.918 332.858C330.453 338.132 295.68 391.049 270.07 457.949C245.008 523.03 223.684 615.127 263.362 684.312C299.696 748.124 384.078 726.089 490.508 698.042C598.309 669.573 731.474 634.407 847.741 689.296C726.575 638.056 589.95 673.981 478.384 703.281C366.104 732.922 277.388 755.898 239.442 689.625C197.795 616.626 220.3 519.856 246.781 451.005ZM318.49 361.607C305.407 384.267 286.837 419.058 271.777 458.934C247.046 523.441 225.768 614.801 264.877 683.657C300.46 746 382.983 724.444 487.831 697.057L489.868 696.525C596.469 668.369 727.534 633.966 843.044 685.673C732.725 630.7 605.416 664.024 502.442 691.164L502.272 691.208C402.222 717.516 323.144 738.309 288.798 678.345C251.657 613.302 271.588 526.901 295.066 465.878C319.139 402.917 351.58 353.46 354.897 348.403C355.063 348.151 355.156 348.009 355.172 347.982C402.692 286.689 459.016 246.924 522.343 229.177C576.789 214.335 638.045 215.281 704.594 232.668C825.721 264.141 943.148 342.385 1029.03 399.61L1030.15 400.359C1051.5 414.599 1071.72 428.182 1089.02 438.935C1162.77 484.572 1159.67 568.074 1125.56 627.163L1124.4 629.171C1100.15 669.861 1061.16 701.275 1016.97 714.772C971.901 728.742 923.854 724.44 876.462 702.954C998.151 766.432 1103.61 711.197 1150.79 631.404L1151.95 629.396C1187.89 567.152 1191.09 479.509 1114.1 431.615C1095.66 420.206 1074.02 405.801 1051.42 390.454C959.798 329.144 834.528 245.346 705.172 211.967C550.892 171.847 429.997 211.812 335.288 333.825C335.335 334.005 334.247 335.733 332.288 338.843C329.349 343.507 324.452 351.281 318.49 361.607ZM297.104 466.29C311.408 429.036 328.818 396.254 341.073 375.028C350.182 359.251 356.712 349.254 357.043 348.68C445.813 234.329 559.627 196.778 704.335 234.431C824.947 266.008 942.027 344.022 1027.89 401.237L1029.16 402.08C1050.51 416.32 1070.73 429.903 1088.02 440.656C1160.35 485.472 1157.19 567.786 1123.57 626.014L1122.58 627.735C1078.98 701.366 983.098 752.518 871.588 698.156C913.723 715.688 956.21 718.426 995.856 706.025C1036.9 693.387 1073.54 664.062 1096.3 625.954L1097.3 624.233C1129.26 568.873 1132.14 490.986 1063.35 448.591C1047.19 438.495 1028.23 426.02 1008.3 412.6L1006.36 411.308C926.08 357.704 816.804 284.739 703.876 255.583C641.52 239.469 584.101 238.445 533.255 252.305C473.859 268.497 421.229 305.805 376.761 363.124C376.311 363.246 343.918 411.473 320.393 473.234C298.499 530.2 279.796 611.19 314.849 671.968C346.944 727.958 420.63 708.631 514.389 684.038L514.541 683.998C608.94 659.176 724.787 628.722 826.318 675.495C719.502 631.543 599.862 663.073 501.848 688.908L500.622 689.231C401.972 715.163 324.065 735.642 290.645 677.116C253.907 612.689 273.791 527.026 297.104 466.29ZM364.034 387.137C332.569 441.636 263.974 579.491 316.246 670.862C347.533 725.62 420.763 706.419 513.616 682.073L513.781 682.03C600.87 659.13 706.896 631.251 802.963 663.994C711.792 628.776 609.845 655.503 526.308 677.406C457.133 695.688 399.555 710.809 363.728 690.125C354.369 684.721 346.494 676.874 340.285 666.001C280.006 560.653 390.291 390.129 397.686 378.695C397.908 378.351 398.037 378.151 398.066 378.101C439.481 324.756 488.418 289.905 543.764 274.818C591.177 261.652 644.758 262.755 702.471 277.718C761.25 292.966 819.133 320.904 871.772 351.295C913.929 375.634 952.723 401.547 985.921 423.775C1004.59 436.087 1021.97 448.028 1037.16 457.181C1101.4 496.949 1098.4 569.793 1068.59 621.424L1067.59 623.146C1046.32 658.672 1012.3 686.073 973.964 697.975C939.983 708.521 903.705 707.182 867.62 694.229C968.429 738.762 1054.62 691.718 1094.31 624.804L1095.31 623.083C1126.77 568.584 1129.73 491.886 1062.24 449.861C1046.07 439.765 1027.12 427.289 1006.9 413.706L1006.86 413.678C926.404 359.961 816.415 286.526 703.048 257.017C567.627 221.666 461.628 256.846 378.183 363.944C377.852 364.518 372.149 373.082 364.034 387.137ZM342.131 664.772C293.441 579.676 357.14 451.615 386.452 400.844C394.07 387.65 399.276 379.947 399.607 379.373C476.828 279.772 575.58 247.293 701.596 279.89C760.217 295.047 817.942 322.893 870.472 353.222C912.542 377.51 951.279 403.391 984.477 425.619C1003.15 437.93 1020.97 449.749 1036 459.188C1098.82 498.136 1096.19 569.669 1066.88 620.439L1065.89 622.16C1027.74 686.332 943.529 731.001 845.721 682.318C881.859 697.28 918.383 699.771 952.568 689.063C988.494 678.062 1020 653.037 1039.5 619.927L1040.33 618.493C1067.98 570.591 1070.49 503.199 1010.63 466.344C996.746 457.562 980.347 446.563 963.094 435.073C932.047 414.228 895.809 389.923 856.398 367.169L856.397 367.168C808.057 339.259 754.943 313.684 700.781 299.689C646.977 285.836 597.518 284.817 553.705 297.002C502.693 311.15 457.165 343.38 418.803 392.75C418.773 392.802 418.644 393.002 418.423 393.345C411.315 404.34 309.472 561.897 365.318 659.418C371.046 669.443 378.318 676.684 386.963 681.676C420.159 700.841 473.618 686.844 537.839 669.912C619.501 648.567 719.748 622.156 807.637 663.27C714.918 625.335 610.792 652.84 525.714 675.151L525.53 675.199C456.97 693.12 399.713 708.086 364.572 687.798C355.585 682.609 348.044 675.114 342.131 664.772ZM367.733 658.518C322.743 580.147 381.711 461.594 408.87 414.552C415.826 402.505 420.581 394.924 421.078 394.064C492.524 301.837 584.196 271.772 700.64 301.903C754.514 315.905 807.559 341.551 855.93 369.478C894.272 391.614 929.676 415.183 960.23 435.523L962.385 436.958C979.472 448.736 996.037 459.447 1009.92 468.229C1068.48 504.714 1065.4 571.778 1037.51 618.778C1003.07 677.193 927.647 717.735 839.529 677.083C870.704 688.394 901.879 689.734 931.291 680.604C964.067 670.461 993.233 647.525 1011.24 616.997L1012.07 615.563C1037.4 571.677 1039.87 509.614 984.679 475.837C971.929 467.711 956.786 457.821 940.955 447.151L940.007 446.519C911.727 427.647 878.887 405.731 843.242 385.152C798.613 359.385 749.587 335.712 699.613 322.727C593.19 294.94 505.734 323.615 440.227 408.18C440.204 408.221 440.098 408.385 439.915 408.667C433.731 418.248 339.756 563.826 391.038 653.616C396.336 662.93 403.069 669.647 411.075 674.269C441.665 691.93 490.83 679.008 549.489 663.591L549.891 663.485C621.893 644.517 709.909 621.183 788.192 652.909C704.787 623.864 613.029 647.874 537.529 667.821C473.997 684.755 421.133 698.628 388.562 679.823C380.241 675.019 373.244 668.082 367.733 658.518ZM393.169 652.552C351.925 580.168 405.997 471.409 431.004 428.096C437.462 416.909 442.171 410.067 442.502 409.493C508.458 324.805 592.315 297.112 699.472 324.941C749.132 337.744 798.017 361.336 842.583 387.066C878.178 407.617 911.017 429.531 939.297 448.403L940.246 449.036C956.077 459.706 971.054 469.883 983.969 477.722C1037.29 510.801 1034.92 571.388 1010.08 614.414L1009.25 615.848C976.905 669.991 906.6 707.76 824.813 668.563C895.147 695.179 954.992 661.36 982.977 614.066L983.639 612.919C1006.82 572.761 1008.96 515.864 958.937 484.304C947.159 477.122 933.603 467.765 919.029 458.203C893.446 441.07 863.56 421.154 831.074 402.398C789.952 378.657 744.664 356.773 698.657 344.74C601.356 319.542 521.43 345.68 461.698 422.87C461.674 422.913 461.568 423.077 461.387 423.358C455.49 432.501 369.957 565.111 416.805 647.075C421.647 655.584 427.795 661.718 435.104 665.939C462.958 682.02 507.68 670.306 561.32 656.256L561.706 656.155C629.29 638.636 712.383 616.678 785.259 649.36C707.328 619.835 620.519 642.464 549.297 661.23L548.892 661.336C490.701 676.624 442.084 689.396 412.252 672.172C404.605 667.757 398.192 661.371 393.169 652.552ZM419.22 646.175C381.392 580.353 430.899 480.814 453.587 441.517C459.383 431.477 463.311 425.331 464.092 424.635C523.824 347.445 600.6 322.165 698.185 347.527C743.469 359.322 788.003 380.814 828.566 404.233C861.514 423.255 891.842 443.549 917.823 460.949C932.397 470.511 945.953 479.867 957.73 487.05C1006.95 517.379 1004.41 573.662 980.986 612.917C952.059 661.783 888.884 695.966 815.3 662.101C877.299 683.541 929.758 653.209 954.715 611.136L955.378 609.989C976.41 573.561 978.055 522.115 933.101 494.248C922.46 487.722 910.161 479.474 897.008 470.733C873.445 454.906 845.982 436.523 816.159 419.305C779.245 397.993 738.715 378.465 697.489 367.779C609.309 345.169 537.198 368.936 482.957 438.587C482.938 438.619 482.853 438.751 482.705 438.979C477.653 446.795 399.818 567.202 442.359 641.559C446.674 649.07 452.196 654.518 458.747 658.301C484.641 673.25 526.62 662.192 573.758 649.728C633.038 634.007 705.37 615.125 769.69 640.834C700.413 617.603 624.403 637.516 561.396 654.064L561.008 654.166C507.835 668.086 463.661 679.649 436.565 664.006C429.614 659.992 423.787 654.188 419.22 646.175ZM444.537 639.757C410.575 580.374 455.185 490.629 475.72 455.061C481.02 445.882 484.616 440.31 485.113 439.449C580.767 316.057 710.472 360.564 813.861 420.256C843.74 437.506 871.42 456.025 895.446 472.125C908.599 480.866 920.898 489.115 931.538 495.64C975.355 522.85 973.354 572.944 952.984 608.225L952.322 609.372C926.888 652.22 872.23 682.699 808.021 656.092C860.777 671.071 904.838 644.537 926.289 608.492L926.951 607.344C945.831 574.645 947.598 528.241 906.862 503.575C897.525 497.419 886.482 490.278 874.751 482.358C853.747 468.366 829.351 452.115 802.9 436.844C769.693 417.672 733.246 400.043 696.202 390.365C617.475 369.771 552.895 391 504.262 453.564C504.243 453.598 504.157 453.73 504.011 453.957C499.241 461.343 429.855 568.776 467.96 635.305C471.808 642.108 476.772 647.033 482.682 650.445C505.876 663.836 543.641 653.927 585.691 642.849C635.049 629.804 694.656 614.14 749.31 631.014C689.818 615.88 626.066 632.672 572.926 646.571C524.76 659.316 484.602 669.878 460.082 655.722C453.847 652.122 448.624 646.924 444.537 639.757ZM470.257 633.954C439.876 580.845 479.756 500.607 498.138 468.768C502.941 460.45 506.206 455.451 506.656 455.328C592.314 345.171 708.01 384.916 800.411 438.263C827.126 453.688 851.894 470.249 873.426 484.653C884.872 492.409 896.034 500.001 905.537 505.87C944.686 530.002 942.893 574.479 924.677 606.031L924.18 606.892C900.558 646.561 849.221 674.011 789.383 645.889C837.626 661.751 878.303 637.929 897.909 605.11L898.406 604.249C915.132 575.279 916.69 534.491 880.22 512.287C871.854 507.075 862.399 500.469 851.924 493.656L851.415 493.315C832.797 480.853 811.09 466.323 787.535 452.723C758.555 435.992 726.778 420.669 694.512 412.335C624.906 394.331 567.857 413.025 524.999 468.213C524.978 468.249 524.892 468.382 524.747 468.606C520.278 475.533 459.318 570.014 492.993 628.722C496.449 634.649 500.841 638.957 506.035 641.955C526.607 653.833 559.763 645.18 597.221 635.355C644.749 622.846 703.042 607.402 754.393 629.55C697.989 610.414 636.156 626.822 584.979 640.143C541.836 651.518 506.129 660.867 484.205 648.209C478.63 644.99 473.945 640.348 470.257 633.954ZM495.574 627.535C469.059 580.865 504.042 510.422 520.271 482.311C521.951 479.402 523.433 476.944 524.592 475.02L524.593 475.02C526.29 472.203 527.297 470.532 527.227 470.264C602.447 373.087 704.378 408.21 785.789 455.212C809.224 468.742 830.958 483.257 849.865 495.884L850.149 496.073C860.458 503.173 870.364 509.657 878.729 514.869C913.612 536.538 911.698 575.973 895.184 603.919C874.564 639.008 828.964 663.145 775.98 637.902C817.728 651.208 852.793 630.807 869.648 602.18L870.145 601.32C884.553 576.365 886.068 540.906 854.716 521.658C847.488 517.103 839.288 511.604 830.235 505.612C814.285 494.88 795.726 482.492 775.569 470.854C750.175 456.193 722.244 442.722 693.794 435.252C633.476 419.549 583.792 435.994 546.708 483.807C544.271 487.372 489.02 570.591 518.998 623.084C521.988 628.304 525.81 632.082 530.344 634.7C548.013 644.901 576.483 637.478 608.565 629.114L609.274 628.929C649.652 618.141 699.205 605.053 743.061 622.841C694.119 607.282 640.551 621.297 596.343 632.936C558.521 642.86 527.01 651.064 507.734 639.935C502.87 637.126 498.785 633.088 495.574 627.535ZM521.626 621.16C498.526 581.051 528.944 519.828 542.855 495.734L549.148 484.834C614.383 400.933 702.79 431.583 773.269 472.274C793.361 483.874 811.996 496.29 828.221 507.101L828.507 507.292C837.56 513.283 846.044 518.946 853.272 523.502C882.752 542.052 881.497 575.748 867.751 599.555L867.255 600.416C849.766 630.092 811.356 651.045 766.687 630.856C799.9 639.203 827.768 622.299 841.388 599.25L841.719 598.676C854.139 577.163 855.16 547.156 828.524 530.248C822.718 526.513 815.49 521.958 807.859 516.787C793.844 507.412 777.72 496.628 760.32 486.582C699.952 451.728 624.218 425.757 567.895 498.334C567.801 498.497 567.586 498.839 567.266 499.348C561.403 508.691 520.325 574.144 544.481 616.38C547.082 620.963 550.407 624.266 554.348 626.542C569.487 635.282 593.73 628.865 621.089 621.599C653.391 613.21 692.718 602.907 728.2 614.562C687.842 604.66 644.758 616.018 608.608 625.485C576.035 634.171 548.628 641.449 532.027 631.865C527.844 629.449 524.347 625.963 521.626 621.16ZM547.062 615.193C527.709 581.072 553.231 529.643 564.989 509.277C567.97 504.114 570.241 500.836 570.407 500.549C625.305 429.911 699.89 455.528 759.293 489.824C776.483 499.748 792.401 510.4 806.203 519.656C813.834 524.826 821.062 529.382 827.152 533.281C852.248 548.917 850.871 577.571 838.828 597.772C823.751 623.262 790.645 640.766 752.312 622.458C778.653 628.509 801.726 615.531 813.126 596.318L813.458 595.744C823.56 578.247 824.253 553.405 802.569 539.739C797.451 536.784 791.81 532.762 785.435 528.699L785.424 528.692C774.05 521.111 761.004 512.416 746.941 504.296C697.364 475.673 635.139 454.203 588.868 513.884C588.791 514.018 588.615 514.298 588.353 514.715C583.548 522.369 549.869 576.008 569.751 610.698C571.872 614.433 574.592 617.13 577.82 618.994C590.328 626.215 610.455 620.921 632.856 615.006C659.338 607.998 691.827 599.534 720.911 609.382C686.935 601.287 650.71 610.816 620.376 618.893L619.754 619.054C592.255 626.169 569.494 632.057 555.727 624.109C552.238 622.094 549.326 619.191 547.062 615.193ZM572.663 608.938C557.01 581.542 577.801 539.621 587.406 522.984L587.407 522.983C589.891 518.681 591.381 516.1 591.831 515.977C636.511 458.447 697.039 479.272 745.441 507.217C759.465 515.314 772.472 524.008 783.779 531.568C790.154 535.631 795.96 539.365 800.913 542.607C821.056 555.002 820.054 577.753 810.614 594.103L810.283 594.676C797.412 616.312 768.477 630.967 735.325 612.209C701.889 593.288 663.192 603.836 632.025 611.849L630.36 612.274C608.648 617.824 590.665 622.421 579.651 616.062C576.855 614.448 574.508 612.128 572.663 608.938Z" clip-rule="evenodd" fill="url(#paint_linear_0_61_1)" fill-opacity="0.000000" fill-rule="evenodd"/>
	</g>
</svg>
